<?xml version="1.0" encoding="utf-8"?>
<!-- Generator: Adobe Illustrator 23.0.1, SVG Export Plug-In . SVG Version: 6.00 Build 0)  -->
<svg version="1.1" id="Capa_1" xmlns="http://www.w3.org/2000/svg" xmlns:xlink="http://www.w3.org/1999/xlink" x="0px" y="0px"
	 viewBox="0 0 65 80" style="enable-background:new 0 0 65 80;" xml:space="preserve">
<style type="text/css">
	.st0{fill:#F8E000;}
	.st1{fill:#004890;}
	.st2{fill:none;}
</style>
<g>
	<path class="st0" d="M24.7,18.1c-5.4,2.2-3.4,4.5-7.3,4.7c2.9,1.5,3.3-0.3,6-1.1c2.6-2.5,5.8-3.9,9-3.9c3.3,0,6.4,1.4,9.1,3.9
		c3.1,0.6,3.6-1.1,6,1.1l0,0l0,0c-1.1-3.5-3-1.8-6-4.1c-0.1-0.1-0.3-0.2-0.4-0.3c0,0-0.1,0-0.1-0.1c-0.1-0.1-0.2-0.2-0.3-0.3l8-1.5
		l-8.5-1.6c5.4-2.2,3.4-4.5,7.3-4.7l0,0c-3.5-1.8-3.4,1.4-8.2,1.4l4.6-6.7l-7.1,4.9c2.3-5.4-0.8-5.6,1.9-8.5
		c-3.5,1.2-1.7,3.1-4.2,6.2c-0.1,0.2-0.3,0.3-0.4,0.5L34,8.1l-1.5-8l-1.6,8.7c-2.2-5.4-4.5-3.4-4.7-7.3l0,0
		c-1.8,3.5,1.4,3.4,1.4,8.2l-6.7-4.6l4.9,7.1c-5.4-2.3-5.6,0.8-8.5-1.9c1.1,3.3,2.9,1.9,5.7,3.8c0.1,0.1,0.2,0.1,0.3,0.2
		c0.3,0.2,0.5,0.4,0.8,0.7l-8,1.5L24.7,18.1L24.7,18.1z"/>
	<polygon class="st0" points="17.7,11.2 17.7,11.2 17.7,11.2 	"/>
	<g>
		<path class="st1" d="M19.8,43.9c0,0.2-0.1,0.3-0.2,0.5c0,0.1,0,0.2,0,0.2c0,0.7-0.4,1.3-0.1,1.8c0.8,0.3,0.7-0.7,1.2-1
			c0.1-0.1,0.2,0,0.3-0.1c0.5,0.7-0.1,2.4,0.5,3.1c-0.1,0.2-0.3,0.4-0.5,0.5c-0.1,0.1-0.5,0.4-0.5,0.5c-0.1,0.2,0.1,0.6,0.2,0.8
			c0.1,0.3,0.1,0.5,0.2,0.8c0.4,0.1,0.4,0.6,0.9,0.5c0.1-0.3-0.1-0.5-0.1-0.8c-0.1,0-0.2,0.1-0.3,0.1c-0.1-0.4-0.5-0.7-0.4-1.2
			c0.1-0.4,0.9-0.3,1.2-0.5c0,0.4,0.4,0.6,0.4,1.1c0,0.1,0,0.2,0,0.3c0.1,0.4,0.4,0.8,0.3,1.2c0,0.2-0.2,0.3-0.1,0.5
			c-0.3,0.1-0.4,0.4-0.5,0.7c0.2,0.2,0.6,0.2,0.8,0c0.1-0.3,0-0.6,0.3-0.8c-0.3-0.9-0.2-1.9-0.2-3c1,0.1,1.9-0.1,2.5-0.5
			c0.1,0.6,1,0.7,1,1.3c0,0.2-0.7,0.8-0.8,1c-0.1,0.1-0.3,0.2-0.4,0.4c-0.1,0.4-0.2,0.7-0.1,1.2c0.4,0.1,0.6-0.1,0.8-0.4
			c0-0.2-0.1-0.2-0.2-0.3c0-0.1,0.2-0.1,0.2-0.2c0-0.7,1.1-0.8,1.3-1.3c0.2-0.4-0.2-0.6-0.2-1c0.5,0.1,0.8,0.7,1.4,0.9
			c0.3,0.5,0.8,1.3,0.7,2.1c-0.1,0.3-0.4,0.5-0.5,0.9c0.1,0.3,0.6,0.2,0.8,0.1c0.2-0.4,0-0.7,0.2-1c-0.3-0.7-0.2-1.5-0.3-2.3
			c0-0.2-0.3-0.3-0.4-0.4c-0.7-0.9,0.2-1.7,0-2.9c0.2,0.1,0.4,0.2,0.4,0.5c0.1,0,0-0.1,0-0.2c0.2,0.2,0.2,0.8,0,1.1
			c0.1,0.1,0.1-0.1,0.2-0.1c-0.1,0.3-0.1,0.5-0.2,0.7c0,0.2,0.1-0.1,0.2-0.1c-0.1,0.3-0.2,0.8-0.1,1.2c0.1,0,0-0.1,0.1-0.2
			c0.1,0.6,0.5,1,0.8,1.4c0.1,0-0.1-0.2-0.1-0.3c0.2,0.2,0.4,0.4,0.7,0.5c0-0.2-0.3-0.3-0.4-0.6c0.1-0.1,0.2,0.1,0.4,0.1
			c-0.6-0.5-0.1-1.6-0.1-2.4c0-0.1,0.1,0.1,0.1,0.1c0.1-0.2-0.1-0.5-0.2-0.7c0-0.1,0.1,0.1,0.1-0.1c-0.4-0.4-0.5-1.2-1.2-1.3
			c-0.2,0-0.4,0.2-0.6,0.1c-0.2,0-0.4-0.3-0.6-0.4c-0.4-0.2-0.9-0.5-1.6-0.3c-0.5,0.1-0.9,0.3-1.5,0.3c-0.8,0.1-1.4-0.1-1.8-0.5
			c-0.2-0.2-0.3-0.5-0.5-0.8c-0.6-0.8-1.8-2-3-1.3c-0.2-0.1-0.3-0.3-0.5-0.3c0,0.1,0.1,0.3,0.1,0.3s-0.2-0.1-0.3,0
			C19.4,43.6,19.7,43.7,19.8,43.9z"/>
		<path class="st1" d="M43.7,24.3c-3-4.2-7-6.5-11.3-6.5s-8.3,2.3-11.3,6.5s-4.7,9.8-4.7,15.7s1.7,11.5,4.7,15.7s7,6.5,11.3,6.5
			s8.3-2.3,11.3-6.5s4.7-9.8,4.7-15.7S46.7,28.5,43.7,24.3z M32.2,18.5c0.1,0,0.1,0,0.2,0c7.2,0,13.2,7,14.9,16.3
			c-0.2,0-0.3,0-0.5,0c-0.4,0-0.7,0.1-1,0.2c-0.9-0.9-3.4-3.4-3.8-3.8c-0.4-0.4-0.7-0.4-0.7-0.4s0,0-0.1,0v-1h0.2v-0.5h-0.5v0.2
			h-0.3v-0.1c0-0.1-0.1-0.2-0.1-0.2h-0.2c0.1-0.1,0.1-0.1,0.1-0.2s-0.1-0.3-0.3-0.3s-0.3,0.1-0.3,0.3c0,0.1,0,0.1,0.1,0.2h-0.2
			c-0.1,0-0.1,0.1-0.1,0.2s0,0.1,0,0.1h-0.3v-0.2H39v0.5h0.2v0.9c-0.3,0-0.7,0.4-0.7,0.4l-3.8,3.8c-0.3-0.1-0.6-0.2-0.9-0.2
			c-0.6,0-1,0.3-1.6,0.3V18.5z M40.4,30.3v0.4c-0.2,0-0.3,0-0.5,0v-0.4c0-0.2,0.1-0.3,0.2-0.3C40.3,30,40.4,30.1,40.4,30.3z
			 M32.2,35.5c0.5,0,1-0.3,1.6-0.3s1.1,0.3,1.6,0.3c0.6,0,1.1-0.3,1.6-0.3c0.6,0,1.1,0.3,1.6,0.3s1.1-0.3,1.6-0.3
			c0.6,0,1.1,0.3,1.6,0.3c0.6,0,1.1-0.3,1.6-0.3c0.6,0,1.1,0.3,1.6,0.3c0.6,0,1.1-0.3,1.6-0.3c0.2,0,0.4,0,0.6,0.1
			c0,0.2,0.1,0.3,0.1,0.5c-0.2-0.1-0.4-0.1-0.7-0.1C46,35.7,45.5,36,45,36c-0.6,0-1.1-0.3-1.6-0.3c-0.6,0-1.1,0.3-1.6,0.3
			c-0.6,0-1.1-0.3-1.6-0.3c-0.6,0-1.1,0.3-1.6,0.3s-1.1-0.3-1.6-0.3c-0.6,0-1.1,0.3-1.6,0.3c-0.6,0-1.1-0.3-1.6-0.3
			c-0.6,0-1,0.3-1.6,0.3C32.2,36,32.2,35.5,32.2,35.5z M32.2,36.5c0.5,0,1-0.3,1.6-0.3s1.1,0.3,1.6,0.3c0.6,0,1.1-0.3,1.6-0.3
			c0.6,0,1.1,0.3,1.6,0.3s1.1-0.3,1.6-0.3c0.6,0,1.1,0.3,1.6,0.3c0.6,0,1.1-0.3,1.6-0.3c0.6,0,1.1,0.3,1.6,0.3
			c0.6,0,1.1-0.3,1.6-0.3c0.3,0,0.5,0.1,0.7,0.1c0,0.2,0,0.3,0.1,0.5c-0.3-0.1-0.5-0.1-0.8-0.1C46,36.7,45.5,37,45,37
			c-0.6,0-1.1-0.3-1.6-0.3c-0.6,0-1.1,0.3-1.6,0.3c-0.6,0-1.1-0.3-1.6-0.3c-0.6,0-1.1,0.3-1.6,0.3s-1.1-0.3-1.6-0.3
			c-0.6,0-1.1,0.3-1.6,0.3c-0.6,0-1.1-0.3-1.6-0.3c-0.6,0-1,0.3-1.6,0.3V36.5z M32.2,37.5c0.5,0,1-0.3,1.6-0.3s1.1,0.3,1.6,0.3
			c0.6,0,1.1-0.3,1.6-0.3c0.6,0,1.1,0.3,1.6,0.3s1.1-0.3,1.6-0.3c0.6,0,1.1,0.3,1.6,0.3c0.6,0,1.1-0.3,1.6-0.3
			c0.6,0,1.1,0.3,1.6,0.3c0.6,0,1.1-0.3,1.6-0.3c0.3,0,0.6,0.1,0.8,0.2c0,0.2,0,0.3,0,0.5c-0.3-0.1-0.6-0.2-0.9-0.2
			c-0.6,0-1.1,0.3-1.6,0.3c-0.6,0-1.1-0.3-1.6-0.3c-0.6,0-1.1,0.3-1.6,0.3c-0.6,0-1.1-0.3-1.6-0.3c-0.6,0-1.1,0.3-1.6,0.3
			s-1.1-0.3-1.6-0.3c-0.6,0-1.1,0.3-1.6,0.3c-0.6,0-1.1-0.3-1.6-0.3c-0.6,0-1,0.3-1.6,0.3v-0.5H32.2z M32.2,38.5
			c0.5,0,1-0.3,1.6-0.3s1.1,0.3,1.6,0.3c0.6,0,1.1-0.3,1.6-0.3c0.6,0,1.1,0.3,1.6,0.3s1.1-0.3,1.6-0.3c0.6,0,1.1,0.3,1.6,0.3
			c0.6,0,1.1-0.3,1.6-0.3c0.6,0,1.1,0.3,1.6,0.3c0.6,0,1.1-0.3,1.6-0.3c0.3,0,0.6,0.1,0.9,0.2c0,0.2,0,0.3,0,0.5
			c-0.3-0.1-0.6-0.2-0.9-0.2C46,38.7,45.5,39,45,39c-0.6,0-1.1-0.3-1.6-0.3c-0.6,0-1.1,0.3-1.6,0.3c-0.6,0-1.1-0.3-1.6-0.3
			c-0.6,0-1.1,0.3-1.6,0.3s-1.1-0.3-1.6-0.3c-0.6,0-1.1,0.3-1.6,0.3c-0.6,0-1.1-0.3-1.6-0.3c-0.6,0-1,0.3-1.6,0.3V38.5z M18.9,35.7
			l1.7-5.9l0,0c0,0-0.1,0-0.1-0.1v-0.8l0,0l0,0l0,0c0,0,0.6,0,0.8,0l0,0h0.1c0.7,0.4,1.1,0.5,3,0c0.1-0.5,0.1-2.4,0.1-2.7
			c-0.3-0.1-0.4-0.4-0.4-0.7c0-0.4,0.3-0.8,0.7-0.8c0.4,0,0.7,0.3,0.7,0.8c0,0.3-0.2,0.6-0.4,0.7c0,0.4,0,2.2,0.1,2.7
			c1.9,0.5,2.2,0.4,3,0h0.1l0,0c0.2,0,0.8,0,0.8,0l0,0l0,0l0,0v0.8c0,0,0,0.1-0.1,0.1l0,0l1.7,5.9l0,0c0,0,0,0.1,0,0.2l0,0
			c-0.6,0.7-1.3,1.1-2.1,1.1l0,0l0,0c-0.8,0-1.5-0.4-2.1-1.1l0,0c0-0.2,0-0.2,0-0.2l1.7-5.9h-3v1l0,0L25,32.5l0,0c0,0,0,0-0.1,0l0,0
			l0,0l-0.5-1.7l0,0v-1h-3l1.7,5.9c0,0,0,0.1,0,0.3l0,0c-0.6,0.7-1.3,1.1-2.1,1.1l0,0c-0.8,0-1.5-0.4-2.1-1.1l0,0
			C18.9,35.7,18.9,35.7,18.9,35.7z M32.2,39.9v15.9v5.7C23.8,61.4,17,51.8,17,40c0,0,0,0,0-0.1L32.2,39.9v-0.5c0.5,0,1-0.3,1.6-0.3
			s1.1,0.3,1.6,0.3c0.6,0,1.1-0.3,1.6-0.3c0.6,0,1.1,0.3,1.6,0.3s1.1-0.3,1.6-0.3c0.6,0,1.1,0.3,1.6,0.3c0.6,0,1.1-0.3,1.6-0.3
			c0.6,0,1.1,0.3,1.6,0.3c0.6,0,1.1-0.3,1.6-0.3c0.3,0,0.6,0.1,0.9,0.2c0,0.2,0,0.4,0,0.6C47.5,39.9,32.2,39.9,32.2,39.9z
			 M44.9,51.2v-0.4c0,0-0.1-0.2,0-0.3c0.2-0.4,0-0.6,0-0.7c0-0.2,0.1-0.4,0.1-0.4c0.2-1.1,0.2-2.6,0.2-3.1c0-0.3,0-0.6-0.3-0.7
			c-0.2-0.1-0.3,0-0.3,0s0.1,0.2,0.2,0.4c0.3,0.5,0.1,1.3,0.1,1.3L44.8,48v0.6l-0.1,0.6v0.4c0,0-0.1,0.2-0.1,0.3
			c0,0.2,0.2,0.5,0.1,1c0,0.3-0.1,0.7,0,1c0,0.4-0.1,0.2-0.3,0.7h-0.5c0,0-0.1-0.3,0-0.3c0.2,0,0.2-0.2,0.2-0.5
			c0.1-0.5,0.2-0.5,0-1.1c-0.1-0.2-0.3-0.5-0.4-0.5l-0.1,0.3l-0.1,0.2l-0.1,0.1c-0.1,0.5-0.2,0.8-0.4,1.1l-0.1,0.3
			c-0.2,0.2,0,0.2-0.3,0.2h-0.3v-0.2l0.1-0.3l0.2-0.2c0.2-0.4,0.2-0.7,0.3-1.1v-0.2l-0.1-0.2c-0.2-0.5-0.5-0.9-0.6-1.5l0,0
			c-1.8,0.2-1.6,0.9-2.3,1c-0.5,0.1-1,0.2-1.7,0.3l-0.1,0.5L38,51c0,0.4,0.2,0.7,0,1.1l0,0.3c-0.3,0-0.5,0-0.6,0
			c-0.1-0.1,0.1-0.3,0.3-0.7l0.1-0.4V51l-0.3-0.4c0,0,0,0,0,0.3c0,0.1,0,0.5,0,0.7S37.3,52,37.3,52c-0.1,0.1-0.1,0.4-0.2,0.4h-0.2
			c-0.2,0-0.3,0-0.3,0c0-0.1,0.1-0.4,0.2-0.5l0.2-0.3v-0.3c0-0.4,0.1-0.7-0.1-0.9l0,0c-0.1-0.1-0.2-0.2-0.3-0.3
			c-0.2-0.7-0.5-1.1-1-1.5c-0.2-0.7-0.8-0.7-1.4-0.7c-0.4-0.2-0.4-0.3-0.4-0.7l0.1-0.2v-0.5c-0.4,0-0.5-0.1-0.8-0.3l0.4-0.2l0.2-0.1
			l-0.5-0.4C33,45,33,44.8,33.3,44.3c0,0.4-0.1,1,0.5,1c0.1-0.1,0.2-0.2,0.3-0.2c0.2,0,0.4,0,0.6,0l0.2,0.2c0.2,0.1,0.9,0.1,1.1-0.2
			c0.1-0.2-0.2-0.3-0.5-0.4c0.2-0.1,0.5-0.1,0.8,0.1c0.1,0.1,0.1,0.3,0.1,0.5h0.1c0.5-0.1,0.7-0.2,1.2-0.2s0.4,0.5,2.8,0.7
			c1,0,1.6-0.5,2.6-0.5c0.5,0,1,0,1.3,0.2c0.3-0.2,0.9-0.1,1.1,0.6c0.2,1-0.1,0.9-0.2,3.6C45.3,50.4,45.2,50.7,44.9,51.2z"/>
		<polygon class="st1" points="20.8,30.1 19.3,35.7 20.8,35.7 		"/>
		<path class="st1" d="M24.9,25.8c0.2,0,0.3-0.1,0.3-0.3c0-0.2-0.1-0.3-0.3-0.3c-0.2,0-0.3,0.1-0.3,0.3
			C24.6,25.6,24.7,25.8,24.9,25.8z"/>
		<polygon class="st1" points="21.2,30.1 21.2,35.7 22.8,35.7 		"/>
		<polygon class="st1" points="28.6,35.7 28.6,30.1 27.1,35.7 		"/>
		<polygon class="st1" points="29,30.1 29,35.7 30.5,35.7 		"/>
	</g>
	<path class="st1" d="M58.2,47.8l-0.5,0.6L57.3,49L57,49.3l-0.2,0.2v-0.3l0.1-0.4l0.1-0.2l0.1-0.2l0.1-0.2v-0.4v-0.5l0.2-0.3
		l0.2-0.3l0.3-0.3c0,0,0.1-0.1,0.2-0.2l0,0c0.3,0.3,1,0.3,1.4-0.1c0.5-0.4,0.6-1,0.3-1.3s-1-0.3-1.4,0.1c-0.4,0.3-0.6,0.8-0.4,1.2h0
		l-0.2,0.2l-0.3,0.3l-0.2,0.3h-0.1v-0.3l0.1-0.4l0.2-0.6l0.3-0.5l0.1-0.4l0.1-0.2c0.7-0.5,0.9-1,1.8-1.2c1.8-0.5,3-2.3,4.2-4.2
		c-3.1,0.6-3.7,2.9-4.8,3.7l-0.9,1v-0.1l0.1-0.3l0.3-0.4l0.4-0.4l0.5-0.5c0.5-0.7,1.2-1.4,1.7-2.2c1-1.8,1.1-2.9,1.5-4.7
		c-1.2,1.3-2.3,3-3.1,4.6l-0.4,0.7c-0.1,0.4-0.3,0.8-0.4,1.2l-0.2,0.5l-0.2,0.4l-0.1,0.2l-0.1,0.4l-0.1,0.3l-0.1,0.3H58v-0.4v-0.2
		l0.1-0.3l0.2-0.4l0.2-0.5l0.5-1.3l0.2-0.7l0.2-0.8l0.3-1l0.2-1l0.1-0.8v-0.6l0.1-0.9v-0.7l-0.7,1.1L59,36.1l-0.3,0.7l-0.6,1.7v-0.3
		l-0.2-0.4l0,0v-0.5l0.2-0.6l0,0l0,0c0.4,0,0.8-0.3,1-0.8c0.2-0.6,0.1-1.2-0.3-1.3c-0.4-0.2-0.9,0.2-1.1,0.8
		c-0.2,0.5-0.1,1.1,0.2,1.3l0,0l-0.1,0.2l-0.1,0.3l0,0v0.1l-0.2-0.4L57,36.1l0,0v-0.2l0.3-0.7c1.7-2.8,2.9-4.9,2.6-8.2
		c-0.6,1.6-1.6,3-2.2,4.6c-0.1-0.2-0.2-0.4-0.4-0.4c-0.3-0.1-0.6,0.1-0.7,0.3c0.2-1,0.4-1.9,0.5-2.9c0.2-2-0.8-5.7-0.8-5.8
		c-0.4,1.9-1.1,5.1-0.9,5.6l0.1,0.4l-0.2-0.2c-0.8-1.8-1.8-3.5-2.6-5.4c0,0,0-0.2,0.1-0.4c0.6-1.7,0.8-2.7,0.5-4.6L53,16.8
		c-0.3,1.4-0.9,2.8-0.8,4.3c0,0.8,0.1,1.6,0.1,2.3c-0.1-0.8-0.2-1.7-0.4-2.5c-0.4-1.4-1.3-2.1-2.1-3.1c0.2,0.9,0.4,1.6,0.8,2.4
		c0.4,0.9,0.9,1.6,1.3,2.5c0.1,0.3,0.2,0.7,0.3,1c-0.5-1.1-1.3-2.3-2.3-2.8c-0.6-0.3-0.5-0.4-1.1-0.8c0.4,0.6,0.8,1.4,1.2,1.9
		s0.9,0.7,1.1,0.8c0.4,0.3,0.4,0.4,0.8,0.7c0.1,0.4,0.2,0.6,0.4,0.9l0.1,0.1v0.6c-0.1-0.1-0.1-0.1-0.2-0.2c-0.1-0.6-0.1-0.8-0.7-1
		c-1-0.4-0.7,1.2,0.2,1.3c0.2,0,0.3-0.1,0.5-0.2l0.2,0.2v0.1v0.5l0.2,0.7l0.4,1.1l0.1,0.4l-0.7-0.6l-0.9-0.7l-0.7-0.4l-1.2-0.9
		l1,1.6l1,1.5l-0.4-0.1l-1.8-0.6l-1.8-0.5c2.1,2.2,4,3.4,7,4.3c0.2,0.1,0.4,0.2,0.6,0.4l0.6,0.6l0.2,0.1l0.3,0.8l-0.4-0.2l-0.5-0.1
		c-0.1-0.4-0.6-0.7-1.1-0.7c-0.6,0-1.1,0.4-1.1,0.8c0,0.5,0.5,0.9,1.1,0.9s1.1-0.4,1.1-0.8l0.2,0.1l0.5,0.2l0.4,0.3l0.4,0.7l0.1,0.5
		L56.9,35l-0.3-0.4l-0.3-0.3L56,34l0.2,0.7l0.1,0.6l0.1,0.6l0.2,0.7l0.2,0.7v0.2l-0.4-0.6c-0.6-0.9-1.4-1.6-2.1-2.5
		c0.4,1.5,0.7,2.8,1.3,4.3l0.2,0.4c0,0-1.8-2.2-2.9-3.1c0.5,1.6,1.2,3.1,2.1,4.4l0.5,0.6l0.1,0.1L55,40.9l-1.2-0.6l-1.4-0.7l-1-0.3
		l0.4,0.7l0.5,0.6l0.4,0.5l0.6,0.5l0.5,0.4l0.6,0.2l0.7,0.4l0.8,0.3l0.2,0.2l1.4,1.1v0.1l0.1,0.7L57,45.5v0.3v0.4v0.3L56.9,47l0,0
		v-0.3l-0.1-0.3L56.7,46l-0.2-0.4l-0.2-0.4L56,44.7l-0.4-0.5l-0.2-0.3L55,43.5l-0.4-0.4l-0.5-0.3l-0.4-0.3l-0.5-0.4l-0.4-0.3
		l-0.4-0.3L52,41.2l-0.7-0.4l0.1,0.3l0.2,0.4l0.1,0.3l0.3,0.5l0.5,0.9l0.3,0.5l0.4,0.5l0.3,0.4l0.3,0.4l0.4,0.5l0.3,0.5l0.4,0.4
		l0.4,0.4l0.4,0.5l0.4,0.4l0.4,0.4v0.5l-0.1,0.6v0.3l-0.1-0.3l-0.1-0.4L56,48.3l-0.4-0.6l-0.4-0.5l-0.5-0.5l-0.4-0.3L54,46.1
		l-0.4-0.3l-0.5-0.4l-0.4-0.2l-0.5-0.4l-0.4-0.2l-0.4-0.3L51,44l-0.3-0.2l0.2,0.3l0.2,0.4l0.4,0.6l0.3,0.6l0.4,0.5l0.4,0.5l0.6,0.6
		l0.4,0.3l0.6,0.5l0.6,0.3l0.2,0.1l0.6,0.4l0.2,0.2l0.2,0.6v0.1l-0.1,0.3l-0.2,0.5l-0.1-0.3L55.5,50l-0.2-0.3v-0.1
		c0.1-0.3,0-0.8-0.3-1.1c-0.4-0.5-1-0.6-1.3-0.3s-0.2,0.9,0.1,1.4c0.4,0.5,1,0.6,1.3,0.3l0,0l0.2,0.2l0.1,0.3l0.1,0.4l-0.1,0.6
		l-0.2,0.2l-0.1,0.2v0.5l-0.2,0.4l-0.4,0.9l-0.8,1.7v-0.2l0.3-0.8l0.1-0.7v-0.7v-0.7v-0.7L54,50.8L53.7,50l-0.3-0.7l-0.1-0.5v0.7
		v0.6L53.2,51L53,52l-0.1,0.8l-0.1,0.4l-0.1-0.4l-0.1-0.5l-0.3-1L52,50.2l-0.4-1.1l-0.3-0.9v1.9l-0.1,1.5v1.3l-0.1,0.6
		c-0.8-1.1-1.4-2.5-1.8-3.7L49,50.5c0,1.5,0.1,2.8,0.4,4.3c0.3,1.3,0.8,2.2,1.8,3.2l0.3,0.6V59l-0.1,0.5L51,59.8l-0.1,0.4v-0.6
		l-0.1-0.3L50.7,59c0.2-0.3,0.2-0.9-0.2-1.3c-0.4-0.5-1.1-0.8-1.5-0.5s-0.4,0.9,0,1.5c0.4,0.5,1.1,0.7,1.5,0.5l0.1,0.1l0.1,0.8
		l-0.1,0.4L50.4,61l-0.2,0.1l0.1-0.3l0.1-0.6v-0.6c-0.6,1.1-1.3,1.9-2.1,2.8l-0.6,0.8l0.1-0.4c0.5-1.8,0.4-3.6,0.6-5.4
		c-0.6,1.2-1.3,2.5-1.8,3.8l-0.3,0.6l0.1-0.6c0.1-1,0-2.1,0-3.1v-0.9l-0.2,0.7c-0.6,1.3-1.3,2.5-1.6,4v0.4l-0.5,0.5l-0.6,0.8
		l-0.7,0.8v-0.5c0.3-1.4,0.4-2.8,0.4-4.2c-0.7,1.7-1.8,3.2-2.2,4.9l-0.1,0.6l-0.1,1l0,0v-0.3c-0.2-1.6-1-2.6-1-4.7
		c-0.4,1.4-0.5,2.7-0.5,4.2c0.1,1.6,0.7,2.4,0.6,3l-0.1,0.9l0,0L39,69.7l-1,0.4l-0.5,0.2L37,70.5l-0.2-0.1l0.4-0.3
		c0.6-0.4,0.9-0.7,1.4-1.3c0.3-0.4,0.3-2.2-0.2-2.5c-0.4-0.3-1-0.8-1.3-1.3c-0.2-0.2-0.3-0.2-0.5-0.2c-0.3,0.1-1.9,0.5-2.7,0.7
		c-0.2,0.1-0.4,0.2-0.4,0.3c-0.3,1.3-0.6,2.5-0.9,3.7v1.3h-0.3l0.1-0.8c0-1.2-0.3-2.2-1.3-3.1c-0.5-0.4-0.8-1.1-1.1-1.3
		c-0.4-0.5-0.6-0.8-1.3-0.9c-0.5,0-0.5,0.1-0.8,0.4c-0.5,0.3-1,0.5-1.6,0.6C26,65.8,26,65.9,26,66c0.1,0.8,0,2.3,0.1,2.7
		c0,0.2,0.9,0.9,1.4,1.3l0.3,0.3h-0.1c-0.7-0.4-1.5-0.6-2.2-1V69l0.1-0.5v-0.6l-0.1-0.4v-0.4l0-0.3v-0.4v-0.5l-0.1-0.5l-0.1-0.3
		l-0.1-0.4h-0.1v-0.2L24.9,64l-0.2-0.3l-0.2-0.1l-0.2-0.5h-0.4l-0.3-0.5l-0.2-0.2L23,62.2l-0.1-0.3l-0.5-0.3l-0.3-0.5l-0.4-0.5
		L21,60l0.2,0.7v0.6v0.6V62l0,0L21,61.8l-0.1-0.2l-0.2-0.2l-0.3-0.3l0,0L20.3,61l-0.2-0.2L20,60.5l-0.3-0.1v-0.3l-0.1-0.5v-0.4
		l-0.1-0.5v-0.6L19,58.3l-0.1,0.3l-0.1,0.2l-0.3,0.1l-0.1,0.2v0.4l-0.1,0.3L18.2,60L18,60.2l-0.2,0.3l-0.1,0.3l-0.3,0.3v0.3
		c-0.1-0.3-0.3-0.5-0.6-0.6l0.2-0.3l0.2-0.1l0.2-0.3l0.2-0.2v-0.2l0.2-0.1l0.2-0.4l0-0.4l-0.1-0.2v-0.3v-0.1l0.1-0.4v-0.6v-0.5
		l0.1-0.6v-0.3v-0.3l-0.2-0.3l-0.1-0.4v-0.2l-0.2-0.2v-0.6l-0.3,0.4L17,54.5l-0.4,0.3L16.4,55l-0.1-0.2v-0.2l-0.1-0.3l-0.3-0.9
		l-0.1-0.9l0.1-0.8l-0.7,0.6l-0.6,0.5l-0.5,0.4l-0.3,0.6L13.7,54l-0.2-0.6v-0.2l-0.1-0.5l-0.1-0.3l0-0.6l-0.1-0.3l-0.3-0.6l-0.2-0.4
		L12,49l-0.3,0.6L11.3,50v0.4l-0.2,0.5v0.5L11,51.9v0.5v0.8v0.6v0.7v0.4l0,0c0-0.1-0.1-0.2-0.1-0.3l-0.5-1.5l0,0l0,0l-0.3-1L10,51.6
		v-0.1l0.1-0.4l0.1-0.5l0.1-0.3h0.1c0.1,0,0.1,0,0.2,0c0.5,0,0.9-0.3,0.9-0.8c0-0.4-0.4-0.8-0.9-0.8s-0.9,0.4-0.9,0.8
		c0,0.3,0.2,0.5,0.4,0.6v0.1L10,50.6L9.9,51v0.1l-0.5-1.6l-0.3-1.2L9,47.9l0.2-0.5l0.2-0.3L9.9,47l0.4-0.3l0.6-0.5l0.5-0.5l0,0
		l0.3-0.2l0.4-0.5l0.2-0.5l0.3-0.8l0.2-0.6v-0.8c0-0.4,0.1-1.1,0.1-1.1l0,0c0,0,0-0.1,0-0.2h-0.1l-0.4,0.3l-0.3,0.3l-0.4,0.3
		l-0.3,0.3l0.2-0.4l0.4-1.1l0.2-1.1l0.2-0.9l0.2-0.6l0.1-0.2l0.1-0.2l-0.2,0.1h-0.2l-0.5,0.4l-0.2,0.2l-0.3,0.2l-0.2,0.2H11L10.8,39
		l-0.1,0.2h-0.2l-0.4,0.3L10,39.7L9.7,40l-0.4-0.6L9,38.6l-0.1-0.5L9,37.9l0.3-0.1h0.3c0.1,0.3,0.4,0.5,0.8,0.5
		c0.5,0,0.8-0.4,0.8-0.9s-0.4-0.9-0.8-0.9c-0.5,0-0.8,0.4-0.8,0.8l0,0c-0.1,0-0.1,0-0.1,0H9.4l-0.2,0.1l-0.3,0.3l-0.2-0.5l-0.5-1.1
		l-0.3,0.8v-0.3v-0.5L8,35.8l0.4-0.5l0.2-0.2L9.4,35l0.6-0.2l0.5-0.2l0.4-0.2l0.5-0.2l0.4-0.2l0.6-0.5l0.8-0.5l0.6-0.7l0.3-0.6
		l0.3-0.5l0.6-0.7l0.2-0.4l0.4-0.5l-0.8,0.3L14.3,30h-0.4h-0.3l-0.5,0.2h-0.4l-0.5,0.2l-0.6,0.2l-0.3,0.3h-0.2L11,31.4l-0.3,0.1
		c0,0-0.2,0.3-0.3,0.3S10.2,32,10.2,32L10,32.2l-0.1,0.2v0.1l-0.1,0.1H9.6L9.4,33l-0.2,0.1l-0.1,0.1l-0.3,0.4L8.7,34l-0.2,0.4v0.2
		l-0.4,0.5l0.1-0.6l0.1-0.3l0.3-0.4l0.1-0.5l0.4-0.5l0.3-0.4l0.5-0.6l0.2-0.5l0.3-0.4v-0.6l0.1-0.8l-0.1-0.4l0,0l0.4-0.3l0,0l0,0
		c0.1,0.3,0.4,0.6,0.8,0.6c0.5,0,0.9-0.4,0.9-0.9s-0.4-0.9-0.9-0.9s-0.9,0.4-0.9,0.9v0.1l-0.4,0.3l0,0l0.1-0.9l-0.2-0.5l-0.1-0.3
		h0.1l0.3-0.1h0.4l0.3-0.2l0.3,0.1l0.4,0.1l0.4-0.1l0.2,0.1l0.3-0.1l0.4-0.1h0.3l0.3-0.1l0.3-0.1l0.4-0.1l0.3-0.3l0.4-0.1l0.2-0.3
		l0.3-0.2l0.2-0.3l0.3-0.2l0.3-0.1l0.2-0.1l-0.2-0.2l-0.3-0.2L16,24.5l-0.1-0.1l-0.2-0.1h-0.3h-0.1H15h-0.2l-0.1-0.2L14.5,24h-0.3
		h-0.3l-0.5,0.1l-0.5,0.1l-0.6,0.2l-0.2,0.2l-0.6,0.2l0.3-0.4l0.5-0.6l0.8-0.5l0.2-0.2l0.4-0.3l0.2-0.3l0.3-0.1l0.8-1.1l0.6-0.9
		l0.6-1.2l0.3-1l0.5-0.6l-0.5,0.2L15.9,18l-0.2,0.1l-0.2,0.3l-0.2,0.1l-0.4,0.3L14.4,19l-0.1,0.2L14,19.3l-0.3,0.3l-0.4,0.2
		l-0.2,0.1V20l-0.3,0.1v0.3l-0.4,0.3V21l-0.1,0.2l-0.2,0.3L12,21.7l-0.1,0.2l0.1,0.3l-0.2,0.2l-0.1,0.2v0.1l-0.1,0.2l0.1,0.4
		L11.6,24l-0.3,0.6L11,24.8l0,0l0.2-0.3l0.1-0.3l0.1-0.2l0.1-0.4v-0.4v-0.5l0.1-0.4v-0.6l-0.1-0.2v-0.2l-0.1-0.2l-0.1-0.4v-0.2
		l-0.4-0.2l-0.3-0.2l-0.1-0.2l-0.1,0.4l-0.4,0v0.1l-0.2,0.2l-0.1,0.3v0.4l-0.1,0.4v0.5l0.1,0.2v0.5l0.1,0.6l0.2,0.3v0.4l0.3,0.4
		l0.3,0.9l-0.3,0.3l-0.1,0.4L10,26.5v0.1v-0.1V26v-0.5l-0.1-0.3l-0.1-0.5l-0.3,0.6l-0.1,0.4l-0.2,0.6l-0.1,0.2l-0.2,0.2l-0.1,0.4
		l-0.1,0.2l-0.1,0.3l-0.2,0.2l-0.1,0.4l-0.1,0.3v0.3L8,29.2v0.4l0,0.5l0.1,0.3L8,30.7l-0.1,0.4L8,31.6V32l0.1,0.6l0.2,0.2l0.1,0.4
		v0.3L8.2,34L8,34.7l-0.1,0.6l-0.2,0.5l-0.2-0.5l0.1-0.6v-0.4l0.1-0.5l0.1-0.4L7.9,33v-0.5l0-0.7l-0.1-0.5l-0.2-0.8l-0.2-0.4
		l-0.2-0.3L7,29.3l-0.3-0.7l-0.3-0.5L6,27.4l0,0L5.8,27v-0.1l0,0v-0.1v0.5L5.7,28l-0.1,0.3l-0.1,0.2l-0.1,0.2v0.2l0.1,0.2v0.2v0.3
		l-0.2,0.2V30v0.3v0.3l0.1,0.2L5.3,31v0.1l0.1,0.2v0.1L5.3,32l0.1,0.1v0.1l0.2,0.3v0.4v0.3l0.3,0.3L6,33.8l0.2,0.5l0.3,0.3l0.3,0.3
		l0.4,0.2l0.2,0.4l0.2,0.4v0.6v0.3l0.2,0.8v0.2l-0.2-0.2l-0.3-0.2H7.2c0.2-0.2,0.2-0.4,0.1-0.5c0-0.5-0.4-0.9-0.8-0.9
		s-0.8,0.4-0.8,0.9c-0.1,0.5,0.3,0.9,0.7,0.9c0.2,0,0.4-0.1,0.6-0.3h0.1l0.2,0.3L7.4,38l0.1,0.1c-0.1,0.2-0.1,0.4-0.1,0.4l-0.2,0.1
		v0.5H7L6.8,40l-0.1,0.3v0.3v0.2l-0.4-0.6L6,39.6l-0.6-0.5L5,38.6l-0.4-0.4l-0.4-0.4l-0.1-0.3v-0.1l-0.2-0.1l-0.2-0.1L3.5,37
		l-0.3-0.1l-0.7-0.6v0.4l0.1,0.6l0.1,0.8L3,38.6v0.2l0,0.3v0.5v0.3v0.2l0.3,0.3l0.1,0.3L3.3,41l0.2,0.3v0.1l-0.4-0.1H2.9H2.6H2.3
		L2,41.2L1.7,41L1,40.8V41l0.2,0.5L1.4,42v0.1l0.3,0.5l0.4,0.5l0.4,0.5L2.9,44l0.2,0.4l0.2,0.1l0.4,0.3L3.9,45l0.2,0.1l0.2,0.1
		l0.3,0.2l0.2,0.2l0.3,0.2l0.4,0.1l0.2,0.2l0.1,0.1L6,46.3l0.2,0.2l0.3,0.3h0.2L7.1,47l0.4,0.1L8,47.5l0.3,0.3l0.4,1.7l-0.3-0.2
		L8.2,49c0.1-0.1,0.1-0.3,0.1-0.4c0.1-0.4-0.3-0.8-0.8-0.8s-0.9,0.3-0.9,0.8c0,0.4,0.4,0.8,0.9,0.8c0.2,0,0.4-0.1,0.6-0.2l0.2,0.2
		l0.2,0.2l0.2,0.3l0.1,0.2l0.3,1.5l0.3,0.5l0.1,0.3l-0.3-0.3l-0.3-0.3l-0.3-0.1l0,0c0,0,0-0.1,0-0.2c0-0.4-0.4-0.8-0.9-0.8
		S6.8,51,6.8,51.5s0.4,0.8,0.9,0.8c0.3,0,0.6-0.2,0.8-0.4h0.1L9,52.2l0.5,0.3l0.3,0.3v0.1l0.4,1.5l0.6,1.6l-0.4-0.5L10,55.1
		l-0.1-0.3l-0.3-0.2L9.2,54l-0.3-0.4l-0.3-0.1l-0.4-0.3l-0.4-0.1l-0.3-0.3H7.2l-0.7-0.5H6.2H5.6L5,51.9l-0.7-0.4l-0.8-0.1L3,51.3
		l-0.8-0.1l0.3,0.3l0.3,0.4L3,52.4l0.3,0.3l0.2,0.2l0.3,0.4L4,53.7L4.1,54l0.2,0.2l0.2,0.3l0.3,0.3L5,55.2l0.3,0.1l0.4,0.4L5.9,56
		l0.4,0.2l0.4,0.4l0.5,0.2h0.3l0.4,0.4l0.7,0.1h0.7l0.4,0.2h0.6h0.6l0.6,0.2l0.2,0.1l0.1,0.2l0.2,0.3l0.5,0.7l0.5,0.6l0.3,0.6
		l0.4,0.3l0.3,0.6l0.3,0.5l0.2,0.3l0.4,0.5l0.1,0.2l0.2,0.2l0,0l0,0l-0.4-0.2l-0.3-0.2l-0.2-0.3L14,61.8l-0.1-0.2l-0.3-0.3l-0.1-0.2
		L13,60.7l-0.3-0.1l-0.3-0.3h-0.2L12,60.1l-0.4-0.4h-0.4L11,59.5h-0.3l-0.3-0.1L10,59.2l-0.5-0.1l-0.2,0.1l-0.4-0.1l-0.5-0.2
		l-0.6-0.1H7.5H6.9H6.3l-0.4-0.2l-0.4,0.1L5,58.6l0.3,0.3l0.1,0.2l0.3,0.2l0.2,0.5l0.2,0.3l0.1,0.1v0.2l0.3,0.2l0.1,0.2l0.3,0.3
		L7,61l0.2,0.4l0.3,0.1l0.3,0.3L8.4,62l0.2,0.1l0.5,0.2l0.4,0.2l0.5,0.1l0.4,0.1h0.3h0.2h0.5l0.2-0.1l0.5,0.1l0.2-0.1h0.3l0.5-0.1
		l0.9,0.3l0.6,0.1l0.5,0.3l0.3,0.4l0.3,0.3l0.5,0.4l0.2,0.3L16,64.2L15.5,64l-0.4-0.1c0,0,0,0,0-0.1c0-0.4-0.3-0.8-0.7-0.8
		s-0.8,0.3-0.8,0.7c0,0.4,0.3,0.8,0.7,0.9c0.3,0,0.6-0.2,0.8-0.5l0.5,0.2l0.7,0.3l0.3,0.1l0.6,0.6l0.7,0.6l0,0h-0.6H17h-0.5
		l-0.2-0.1l-0.4-0.2h-0.2h-0.3h-0.3L15,65.5l-0.4,0.1l-0.4,0.1h-0.5l-0.3-0.1H13h-0.3h-0.3l0.6,0.5l0.3,0.2l0.2,0.2l0.5,0.3l0.4,0.2
		l0.1,0.2l0.2,0.2l0.5,0.1l0.5,0.6H16l0.2,0.3l0.4,0.3l0.5,0.1l0.3,0.2l-0.8,0.2l-0.3,0.1l-0.5,0.2h-0.3l-0.4,0.2l-0.4,0.1L14.2,70
		l-0.6,0.3L13,70.7l-0.3,0.2L12.3,71l0.6,0.2l0.5,0.2h0.5l0.7,0.2h0.3l0.4,0.2L16,72h0.3l0.5,0.1h0.4h0.6h0.3h0.6l0.3-0.3l0.7-0.1
		l0.3-0.1l0.3-0.2l0.3-0.1l0.3-0.1l0.2-0.1l0.3-0.4l0.3-0.2l0.3-0.1l0.3-0.1l0.1-0.2l0.6-0.3h0.1l0.6,0.2l0.5,0.2h0.1l-0.5,0.3
		l-0.2,0.1L23,70.2v0.1l-0.3,0.2L22,70.9l-0.3,0.2l-0.5,0.3l-0.4,0.3l-0.2,0.1l-0.2,0.4l-0.5,0.2l-0.1,0.4l-0.4,0.4L18.8,74
		l-0.1,0.3l-0.2,0.3l-0.2,0.2l-0.1,0.3L18,75.6l0.5-0.1l0.4-0.2l0.5-0.2l0.2-0.1h0.3l0.2-0.1l0.4-0.1l0.2-0.2l0.5-0.1l0.2-0.1
		l0.2-0.2h0.3l0.2-0.2l0.3-0.2l0.2-0.1l0.2-0.1l0.3-0.4l0.2-0.3l0.2-0.1l0.4-0.3l0.1-0.3l0.1-0.4c0.4-0.6,0.4-1,0.3-1.8v-0.1l0,0
		l0.4,0.2l1.4,0.4l-0.1,0.1v0.2v0.1c-0.4,0-0.7,0.3-0.7,0.8c0,0.4,0.3,0.8,0.8,0.8c0.4,0,0.8-0.3,0.8-0.8c0-0.3-0.2-0.6-0.5-0.7
		v-0.3l0.1-0.1l0.6,0.4l0.9,0.2l0.4,0.3c0.9,0.1,1.7,0.3,2.6,0.6h0.4v0.2h-0.3l-0.7,0.2l-0.8,0.3l-0.8,0.1L27.8,73l0,0
		c-0.1-0.3-0.3-0.4-0.5-0.3C26.7,72.9,26,73,25.2,73c-0.2,0-0.3,0.3-0.3,0.5c-0.1,0-0.2,0.1-0.3,0.1c-0.8-0.1-0.9,0-1.4,0.5
		c-0.4,0.4-0.6,0.7-1,1.2l-0.5,0.6l-0.5,0.6l0.5-0.4c0.6-0.4,1.1-0.7,1.8-0.8c0.1,0,0.6-0.3,0.6-0.3l0.3-0.2l0.1-0.1l0,0v0.4v0.7
		c0,0.5-0.3,1.1-0.5,1.5c-0.3,0.5-0.7,0.6-0.8,1.3c1-0.3,1.7-0.5,2-1v0.3c0,0.4,0.6,0.9,0.6,1.6c0.2-0.5,0.2-1.3,0.6-1.9l0.1-0.3
		l0.3,0.3l0.3,0.3l0.2,0.1h1h0.5l0.7,0.1h0.6h0.4l0.3-0.2l0.5-0.5l0.6-0.7l0.4-0.5l0.2-0.3l0.1-0.4v-0.3v-0.4v-0.3V74v-0.3h0.2
		c0.1,0.9,0.2,1.7,0.3,2.6c0,0.2,0.8,1.2,1.1,1.7c0.3,0.6,0.8,0.2,1.5,0.3c0.6,0.1,0.8,0.2,1.3,0l0.1-0.1l0.5-0.8l0.4-1.2l0.1-0.3
		l0.1-0.2c0.3,0.5,0.3,1.3,0.5,1.9c0.1,0.5,0.9,0.8,1.1,1.9c0.1-0.4,0.9-0.9,0.9-1.3c0.7,0.1,1.4,0,2,0.2c-0.3-0.7-0.9-0.9-1.4-1.3
		c-0.1-0.1-0.2-1.2-0.4-1.8l0.5,0.2l0.3,0.1H42l0.6,0.1l0.5,0.2l0.8,0.3l-0.4-0.4L43,75.3L42.6,75l-0.2-0.2l-0.2-0.4L42,74.2
		l-0.5-0.4h-0.2H41l-0.7-0.1h-0.1L40,73.3c-0.1-0.3-0.8-0.4-1.1-0.4c-0.6,0-1-0.1-1.6-0.2c-0.3-0.1-0.5-0.2-0.6,0.1L36.6,73
		l-0.2-0.1c-0.5-0.1-1.1-0.3-1.6-0.4l-0.3-0.2l-0.2-0.1h0.1l0.3-0.1l0.7-0.2l0.6-0.2l0.4-0.2l0.6-0.1l0.3-0.2l0.6-0.3h0.2l0.2,0.1
		c-0.1,0.4,0,0.9,0.4,1.2c0.5,0.4,1.2,0.5,1.5,0.1s0.2-1-0.3-1.4s-1.1-0.4-1.4-0.1l-0.2-0.1l-0.1,0.1l0.3-0.2l0.5-0.1l0.3-0.1
		l0.6-0.2l0.5,0.2c0.7,0.3,2.3,1.3,4.6,1.6c1.3,0.2,2.7,0.2,3.9,0.5c-1.1-0.7-2.6-1.3-3.9-1.7c-2.3-0.6-3.9-0.6-4.5-0.8h-0.2v-0.1
		h0.4h0.2l0.4-0.2l0.1-0.2h0.4h0.5h0.4v-0.2h-0.3l-0.6-0.1l0.3-0.2l0.3-0.2l0.4-0.1l0.3,0.2c1,0.8,1.9,1.6,3.1,2.1
		c1.5,0.6,3,1.1,4.6,1.1c-1.4-0.7-2.5-1.9-3.9-2.6c-1.2-0.7-2.1-0.6-3.5-0.9l-0.2-0.2l0.3-0.2l0.4-0.1l0.3,0.1h0.2l0.3-0.1l0.3-0.3
		l0.3-0.2h0.4l0.6,0.4c1,0.6,1.9,1.2,3.1,1.6c1.1,0.4,2.3,0.5,3.4,0.8c-1-0.7-2-1.4-3.1-2c-0.7-0.4-1.3-0.6-2-0.8L47,67.4h0.4h0.7
		c1.4,0.1,2.8,0,4.3-0.2c1-0.1,1.9-0.3,2.9-0.6c-1.2-0.2-2.3-0.3-3.5-0.4c-1.4-0.1-2.7-0.1-4.1,0l0,0c0.5-0.5,0.9-0.8,1.2-1.4h0.3
		c0,0.5,0.4,0.9,1,1s1.2-0.2,1.3-0.7s-0.4-1-1-1.1c-0.6-0.1-1.1,0.1-1.2,0.5h-0.2l0.1-0.1l0.3-0.7l0.3-0.8l0.4,0.3l0.6,0.5
		c1.3,0.6,2.4,1.1,3.7,1.5c0.9,0.2,1.8,0.5,2.7,0.7c-0.7-0.6-1.4-1.2-2.2-1.7l-1.2-0.6l-0.5-0.3h1.2c1.7-0.2,3.4-0.5,5-1.2
		c-1.8-0.3-3.2-0.7-5.2-0.7c-1.5,0.1-4.2,1-4.2,1l0.1-0.3l0.6-0.4l0.7-0.9l0.3-0.5l0.4-0.2c1-0.3,2-0.4,3-0.8l1.5-0.6
		c1.8-0.7,3.3-2,4.6-3.3c-1.9,0.4-3.5,0.7-5,1.5c-1.1,0.6-2.1,1.2-3,2l-0.4,0.3l-0.2,0.1l0.1-0.4l0.1-0.3l0.4-0.4l0.4-0.3
		c0.6-0.4,1-0.8,1.5-1.2c1-0.8,1.8-1.5,2.5-2.6c1.1-1.5,1.6-2.9,2.1-4.6c-1.3,1.4-2.7,2.7-3.9,4.2c-0.7,0.9-0.8,1.1-1.4,2.1L54.3,56
		l0.6-1l0.5-1l0.2-0.3l0.2-0.4L56,53l0.1-0.3l0.1-0.2v-0.2v-0.2l0.1-0.3v-0.1l0.1-0.1l0.2-0.2l0.2-0.1l0.2-0.2
		c0.2,0.3,0.8,0.2,1.2,0c0.5-0.3,0.7-0.8,0.5-1.2c-0.2-0.3-0.8-0.4-1.3,0c-0.4,0.3-0.6,0.7-0.6,1l-0.3-0.1v-0.2l0.1-0.3l0.1-0.2
		l0.2-0.6l0.4-0.4l0.2-0.1l0.5-0.2l0.3-0.1c1.1-0.5,1.4-0.8,2.4-1.5c1.3-0.9,1.9-1.8,2.9-3l-0.2,0.1C61.2,45.4,59.5,46.1,58.2,47.8z
		 M55.6,32.7l-0.2-0.3l-0.2-0.3L55,31.7l-0.2-0.2l0.3,0.2l0,0l0.3,0.4l0.2,0.5V32.7z M56.3,33.2v-0.7c0-0.1,0-0.2,0-0.3
		c0,0.2,0.1,0.3,0.2,0.4l-0.1,0.2L56.3,33.2z M56.9,35.4L56.9,35.4v-0.3l-0.1-0.4l-0.2-0.4V34v-0.6l0.2-0.5h0.1c0.2,0,0.3,0,0.5-0.1
		c-0.2,0.7-0.1,1.5-0.3,2.3L56.9,35.4z M9.1,45.2l0.2-0.4l0.4-0.6l-0.1,0.4l-0.2,0.2l-0.1,0.1v0.3l-0.2,0.3v0.6L9,46.7L8.9,47l0,0
		l-0.1,0.3l-0.1-0.7l0.1-0.3l0.1-0.5L9.1,45.2z M8.6,46l-0.1-0.6L8.6,45l0.2-0.7v0.4v0.4l-0.2,0.7V46z M14.2,60.4l-0.4-0.6l-0.6-1
		l-0.3-0.4v-0.1l0.2-0.5l0.1-0.1l0,0l0.1,0.4l0.2,0.3v0.2l0.2,0.2l0.3,0.6l0.2,0.6V60.4z M15.5,62l-0.3,0.3V62l-0.1-0.1l-0.3-0.4
		L14.4,61v-0.2l0.2-0.3l0.2-0.5l0.2-0.2h0.1v0.1l0.3,0.3v0.5l0.2,0.5l0.1,0.4L15.5,62z M16,62.6v0.3h-0.1l-0.1-0.7l0.1-0.4l0.1-0.1
		c0,0.1,0.1,0.2,0.2,0.3l-0.1,0.3L16,62.6z M17.6,64.7l-0.4-0.4l-0.3-0.4l-0.5-0.6l-0.2-0.4v-0.3l0.1-0.5l0,0
		c0.1,0.1,0.2,0.1,0.4,0.1c0.2,0,0.4-0.1,0.6-0.3v0.2l0.1,0.6l0.2,0.7v0.1l0.1,0.5l0.3,0.5v0.3L17.6,64.7z M20.7,66.8l-0.3-0.1
		L20,66.4l-0.5-0.2l-0.3-0.1L18.9,66l-0.3-0.5l-0.2-0.2l-0.2-0.1l0.1-0.4l0.3-0.4l0.4-0.6l0.2-0.5l0,0l0,0l0,0v0.4l0.3,0.6l0.2,0.5
		l0.1,0.3l0.3,0.5l0.1,0.2l1.4,1.4l1.2,1l-1.1-0.6L20.7,66.8z M30.5,70.4c-1.1-0.9-1.7-1.4-1.9-2.7c0.9,0.7,1.3,1.5,1.9,2.4l0.2,0.4
		L30.5,70.4z M31.5,73.2l-0.2,0.6l-0.5,0.8l-0.6,0.9l-0.7,0.9l-0.7,0.5l-0.2-0.5l-0.3-0.8l-0.2-0.7L28,74.4l0-0.5l0.3-0.1h0.5h0.6
		h0.4l0.2-0.3h0.4l0.5-0.2l0.8-0.4L31.5,73.2z M35.7,73.5l0.6,0.2v0.1l0,0c-0.2,0.5-0.6,1.3-0.7,1.4c0,0.2,0,0.3-0.1,0.4l-0.1,0.1
		l-0.1-0.1c-0.3-0.8-0.9-1.7-1.3-2.7h0.1L35.7,73.5z M36.5,68.3c-0.6,0.6-1.2,1.2-1.9,1.6l-0.3,0.2l-0.2,0.1l0.2-0.5l0.6-1l0.4-0.8
		l0.4-0.6l0.6-0.3C36.3,67.1,36.8,68,36.5,68.3z M40.6,68.4v0.5L40,69.2l0.1-0.4l0.2-0.3l0.2-0.4l0.1-0.2V68.4z M44.1,66.9l-0.2,0.3
		h-0.1l-0.7,0.6l-1,0.6l0,0l0,0l0.2-0.3l0.1-0.2l0.4-0.6l0.6-1l0.5-0.7l0.3-0.7l0.5-1.2l0.1,0.6l-0.2,0.8l-0.2,0.5V66L44.1,66.9z
		 M45.8,64.8l-0.2,0.6L45.4,66L45,66.6L44.6,67l-0.2,0.1l0.3-0.5l0.2-0.4l0.3-0.5l0.2-0.5l0.4-0.8V64.8z M51.9,58.7l-0.2,0.6v-0.4
		V58l-0.2-1.1l-0.1-1.3l0.4,1.2l0.1,0.4l0.1,0.6L51.9,58.7z M53.2,56.5l-1,2.1V58l0.2-0.6l0.3-0.7L53.2,56.5z"/>
	<line class="st2" x1="18" y1="11.5" x2="18" y2="11.5"/>
</g>
</svg>
