<svg xmlns="http://www.w3.org/2000/svg" fill="#fff" version="1.0" viewBox="0 0 100 84.9">
  <defs/>
  <path d="M95.2 22.1c-5.4 3.2-8.2 4.5-13.8 4.2-2.1 0-3.2-1-5.3-.8-2 .1-3 .8-4.9 1.5l-7.6 2.7c-2 .6-3.3.6-5.3 1.3-1.8.7-1 .1-2.2 1.5-1.6 1.8-1.2 3.2-2.7 6.2-1.8 4-1.6 4.5-.6 5-.7 2-.8 3.3-.7 5.5.2 1.7-.5 2.9 1.3 4.2 2.5 1.8 7.6 6 8.9 6.1 2 0 7.6.1 10.5-1.9.7-.4.9-.8.3.8-.1.2-7.2 5.7-8 5.7-5.4.1-6.5.4-6.6.5-.6-.2-4.8-5.2-7.4-3.4-1 .6-1.4 1.2-1.8 2.3.3.7 2 1.8 3.4 2.7 2.1 1.4 2.3 2.8 4.4 3.3 2.6.6 5.4.2 7 .4a34 34 0 009.9-3.4c3.3-1.7-4.5 3.3-6.4 5.7-5.8 1.8-4.2 1.9-6.9 2.4l-4.1 1c-1.8.5-3.3 2.9-1.6 4.2 1 .8 4.2-.4 7.3-.5 1.4 0 7-2.6 8.2-3.2 3.2-1.8 5.6-4.1 7.5-5.5 2.6-1.8-3 5-5.3 7.9-.7.9-1 1-1.9 2.3-1.4 1.8.4 4.5 1.3 4 1-.3 1.7-2.4 2.9-3 .5-.4 2-2.6 3.5-4.2 1-1.2 1.9-1.7 2.9-3 1.7-2 2-3.7 3.5-6 1-1.2 1.6-1.5 2.5-3 4.4-8.4 3.1-12.2 7.4-18.2 1.3-1.8 2.8-2.2 4.8-3.3 2-14-4.4-22-4.4-22zM74.5 44.5c-1 3.6-.9 4-2.8 5.3-2.4 1.8-2.5.4-7.9 3.4 0 0-2.2-2.3-5.7-3.4 0 0-1-4.5-2.8-6 4.5-3.4 4.4-6.4 5.1-6.3 1.6.2 4.2 1 9-.8 2.7 5.2 6 5 5.1 7.8zM47.3 18.9c-2.1-1.5-2.3-2.9-4.4-3.3-2.6-.7-5.4-.3-7-.6-.6 0-6.3 1.6-9.8 3.4-3.4 1.8 4.4-3.2 6.4-5.7 5.7-1.7 4-1.8 6.8-2.4 2.5-.5 2.4-.4 4.1-.9 1.8-.4 3.3-2.9 1.6-4.2-1-.8-4.2.4-7.3.4A43 43 0 0029.5 9c-3.2 1.7-5.6 4-7.5 5.3-2.6 1.9 3-4.9 5.3-7.7l1.9-2.3c1.3-1.9-.4-4.6-1.3-4.3-1 .5-1.7 2.6-3 3.3-.5.3-2 2.5-3.4 4.1-1 1.2-1.9 1.7-2.9 3-1.7 2.1-2 3.7-3.5 5.9-1 1.3-1.6 1.6-2.5 3.1-4.4 8.4-3.1 12.2-7.4 18.1C4 39.5 2.4 39.8.4 41c-2 14 4.4 21.8 4.4 21.8 5.4-3 8.2-4.4 13.8-4.2 2.1.2 3.2 1 5.3 1 2-.2 3-1 4.9-1.5 3-1 4.5-1.8 7.5-2.7 2.1-.6 3.4-.7 5.4-1.5 1.8-.6 1 0 2.2-1.4 1.5-1.8 1.2-3.2 2.5-6.1 2-4 1.8-4.6.8-5 .6-2 .8-3.4.7-5.6-.3-1.7.5-2.8-1.3-4.1-2.5-1.9-7.6-6.1-8.9-6.2-2 0-7.6-.1-10.5 1.8-.7.5-.9.9-.3-.6.1-.3 7.2-5.8 8-5.9 5 0 6.3-.3 6.6-.4.5 0 4.8 5.3 7.4 3.4 1-.6 1.4-1.2 1.8-2.2-.3-.8-2-1.9-3.4-2.7zM28.3 35c2.3-1.7 2.5-.3 7.9-3.3 0 0 2.2 2.3 5.7 3.3 0 0 1 4.6 2.8 6.1-4.5 3.4-4.4 6.4-5.1 6.3-1.6-.2-4.2-1-9 .7-2.8-5.1-6-4.8-5.1-7.8 1-3.4.9-3.9 2.8-5.3z"/>
</svg>
