<svg data-name="Capa 1" xmlns="http://www.w3.org/2000/svg" viewBox="0 0 32 32"><path d="M17.16 13.39c-.39.06-.7 0-.93.27a.87.87 0 0 0-.1.94c.26.47 1.31.38 1.63.24a.56.56 0 0 0 .33-.36 7 7 0 0 0 .05-1.32c-.22.25-.68.19-.98.23zM11 12.3l.05-.05a.86.86 0 0 0 0-1C10.86 10.9 10 11 9.72 11a.63.63 0 0 0-.54.61 10.52 10.52 0 0 0 0 1.13c.33-.37 1.39-.06 1.82-.44z" fill="#fff" fill-rule="evenodd"/><path d="M31 7.31C28-.16 15.25.74 8.85 1.79-1.75 3.53.13 14.86.13 22.77c0 2.79.07 5.35.07 8.14h.07a5.36 5.36 0 0 1 1.24-2.65c3.1-4.08 14.56-5 18.73-6C27.77 20.57 34.62 16.39 31 7.31zm-23.14 3L6.45 14.9a1.32 1.32 0 0 1-.25.52 1.12 1.12 0 0 1-1.29.31 1.1 1.1 0 0 1-.55-.47l-1.47-4.8c0-.09-.1-.26 0-.26H4c.06 0 .06.06.07.12l1.26 4.24 1.26-4.11c0-.11.06-.25.11-.25h1.13s.03.03.03.07zm1.54 4.45a1.43 1.43 0 0 0 .81.17c.59 0 .94-.13.94-.76h1.07v.28c0 1.56-2.53 1.49-3.38 1.12a1.2 1.2 0 0 1-.79-1v-3.16c0-.64.5-1 1-1.15a4.54 4.54 0 0 1 1.94 0 2.58 2.58 0 0 1 .63.24 1.32 1.32 0 0 1 .45.43 2.43 2.43 0 0 1 0 1.74 1.34 1.34 0 0 1-1.08.65l-1.22.16a.66.66 0 0 0-.61.76c.02.21.01.36.24.52zm5.36-3.69a1.1 1.1 0 0 0-.51.13.44.44 0 0 0-.24.41v4.13h-1.15v-4.12a1.12 1.12 0 0 1 .39-1 2.38 2.38 0 0 1 1.51-.46zm4.5 3.32c0 .79-.52 1.16-1.23 1.32a4.79 4.79 0 0 1-1.73 0 1.94 1.94 0 0 1-1-.48 1 1 0 0 1-.27-.7c0-.58-.07-1.17.45-1.57a1.53 1.53 0 0 1 .86-.32l.77-.1a2 2 0 0 0 .71-.17l.13-.1a1.26 1.26 0 0 0 .11-.9c-.11-.3-.58-.39-.91-.39a1.45 1.45 0 0 0-.78.16.7.7 0 0 0-.25.61h-1v-.38a1 1 0 0 1 .45-.83 2.16 2.16 0 0 1 .93-.36 5.33 5.33 0 0 1 1.2 0 2.54 2.54 0 0 1 1 .3 1.17 1.17 0 0 1 .59 1.1zm4.27-3.5h-1.05v3.35c0 .51.69.55 1.06.55v.9c-1 0-2.23-.17-2.23-1.38v-3.37h-.77v-.87h.77c0-.49 0-.74.21-1a1.21 1.21 0 0 1 1-.4v1.4h1.05zm3.69 4.38a1.1 1.1 0 0 1-1.39.46 1.14 1.14 0 0 1-.7-.83l-1.39-4.7h1.17l1.33 4.35 1.34-4.35h1.19z" fill="#fff" fill-rule="evenodd"/></svg>