<?xml version="1.0" encoding="utf-8"?>
<!-- Generator: Adobe Illustrator 19.0.0, SVG Export Plug-In . SVG Version: 6.00 Build 0)  -->
<svg version="1.1" id="Capa_1" xmlns="http://www.w3.org/2000/svg" xmlns:xlink="http://www.w3.org/1999/xlink" x="0px" y="0px"
	 viewBox="-41 15 32 32" style="enable-background:new -41 15 32 32;" xml:space="preserve">
<style type="text/css">
	.st0{fill:#FFFFFF;}
</style>
<path class="st0" d="M-23.9,16.6v7.3c0,0,0,0,0,0h5.7c0,0,0,0,0,0v4.3c0,0,0,0,0,0h-5.7c0,0,0,0,0,0l0,9.3c0,0-0.1,2.4,2.5,2.5
	c0,0,0,0,0,0c1.5,0,2.4-0.4,2.6-0.5c0,0,0.1,0,0.1,0l1.4,4.1c0,0,0,0,0,0c-0.1,0.1-1,1.1-3.8,1.6c-3,0.5-6.9-0.2-9-4.2c0,0,0,0,0,0
	c-1.1-2.4-0.9-4.6-0.9-4.7v-8.1c0,0,0,0,0,0H-34c0,0,0,0,0,0v-3.7c0,0,4.9-1.2,5.7-7.8c0-0.1,0.1-0.2,0.2-0.2
	C-26.2,16.5-24.3,16.5-23.9,16.6C-23.9,16.5-23.9,16.5-23.9,16.6z"/>
</svg>
