<?xml version="1.0" encoding="utf-8"?>
<!-- Generator: Adobe Illustrator 19.0.0, SVG Export Plug-In . SVG Version: 6.00 Build 0)  -->
<svg version="1.1" id="Capa_1" xmlns="http://www.w3.org/2000/svg" xmlns:xlink="http://www.w3.org/1999/xlink" x="0px" y="0px"
	 viewBox="-467 269 24 24" style="enable-background:new -467 269 24 24;" xml:space="preserve">
<style type="text/css">
	.st0{fill:#87868A;}
	.st1{fill:#FFFFFF;}
	.st2{fill:none;}
</style>
<g>
	<path class="st0" d="M-455,292.8c-0.2,0-0.3-0.1-0.5-0.2l-3.4-3.4c-0.1-0.1-0.2-0.3-0.2-0.5s0.1-0.3,0.2-0.5
		c0.1-0.1,0.3-0.2,0.5-0.2h1.9v-5.5h-5.5v1.9c0,0.2-0.1,0.3-0.2,0.5c-0.1,0.1-0.3,0.2-0.5,0.2c-0.2,0-0.3-0.1-0.5-0.2l-3.4-3.4
		c-0.1-0.1-0.2-0.3-0.2-0.5s0.1-0.3,0.2-0.5l3.4-3.4c0.1-0.1,0.3-0.2,0.5-0.2s0.3,0.1,0.5,0.2c0.1,0.1,0.2,0.3,0.2,0.5v1.9h5.5V274
		h-1.9c-0.2,0-0.3-0.1-0.5-0.2c-0.1-0.1-0.2-0.3-0.2-0.5c0-0.2,0.1-0.3,0.2-0.5l3.4-3.4c0.1-0.1,0.3-0.2,0.5-0.2s0.3,0.1,0.5,0.2
		l3.4,3.4c0.1,0.1,0.2,0.3,0.2,0.5s-0.1,0.3-0.2,0.5c-0.1,0.1-0.3,0.2-0.5,0.2h-1.9v5.5h5.5v-1.9c0-0.2,0.1-0.3,0.2-0.5
		c0.1-0.1,0.3-0.2,0.5-0.2s0.3,0.1,0.5,0.2l3.4,3.4c0.1,0.1,0.2,0.3,0.2,0.5s-0.1,0.3-0.2,0.5l-3.4,3.4c-0.1,0.1-0.3,0.2-0.5,0.2
		s-0.3-0.1-0.5-0.2c-0.1-0.1-0.2-0.3-0.2-0.5v-1.9h-5.5v5.5h1.9c0.2,0,0.3,0.1,0.5,0.2c0.1,0.1,0.2,0.3,0.2,0.5s-0.1,0.3-0.2,0.5
		l-3.4,3.4C-454.7,292.8-454.8,292.8-455,292.8z"/>
	<path class="st1" d="M-455,269.4c0.1,0,0.3,0,0.4,0.2l3.4,3.4c0.1,0.1,0.2,0.2,0.2,0.4c0,0.1,0,0.3-0.2,0.4
		c-0.1,0.1-0.2,0.2-0.4,0.2h-1.7h-0.4v0.4v5.1v0.4h0.4h5.1h0.4v-0.4v-1.7c0-0.1,0-0.3,0.2-0.4c0.1-0.1,0.2-0.2,0.4-0.2
		c0.1,0,0.3,0,0.4,0.2l3.4,3.4c0.1,0.1,0.2,0.2,0.2,0.4c0,0.1,0,0.3-0.2,0.4l-3.4,3.4c-0.1,0.1-0.2,0.2-0.4,0.2
		c-0.1,0-0.3,0-0.4-0.2c-0.1-0.1-0.2-0.2-0.2-0.4v-1.7v-0.4h-0.4h-5.1h-0.4v0.4v5.1v0.4h0.4h1.7c0.1,0,0.3,0,0.4,0.2
		c0.1,0.1,0.2,0.2,0.2,0.4c0,0.1,0,0.3-0.2,0.4l-3.4,3.4c-0.1,0.1-0.2,0.2-0.4,0.2c-0.1,0-0.3,0-0.4-0.2l-3.4-3.4
		c-0.1-0.1-0.2-0.2-0.2-0.4c0-0.1,0-0.3,0.2-0.4c0.1-0.1,0.2-0.2,0.4-0.2h1.7h0.4v-0.4v-5.1v-0.4h-0.4h-5.1h-0.4v0.4v1.7
		c0,0.1,0,0.3-0.2,0.4c-0.1,0.1-0.2,0.2-0.4,0.2c-0.1,0-0.3,0-0.4-0.2l-3.4-3.4c-0.1-0.1-0.2-0.2-0.2-0.4c0-0.1,0-0.3,0.2-0.4
		l3.4-3.4c0.1-0.1,0.2-0.2,0.4-0.2c0.1,0,0.3,0,0.4,0.2c0.1,0.1,0.2,0.2,0.2,0.4v1.7v0.4h0.4h5.1h0.4v-0.4v-5.1v-0.4h-0.4h-1.7
		c-0.1,0-0.3,0-0.4-0.2c-0.1-0.1-0.2-0.2-0.2-0.4c0-0.1,0-0.3,0.2-0.4l3.4-3.4C-455.3,269.4-455.1,269.4-455,269.4 M-455,269
		c-0.2,0-0.4,0.1-0.6,0.3l-3.4,3.4c-0.2,0.2-0.3,0.4-0.3,0.6c0,0.2,0.1,0.4,0.3,0.6c0.2,0.2,0.4,0.3,0.6,0.3h1.7v5.1h-5.1v-1.7
		c0-0.2-0.1-0.4-0.3-0.6c-0.2-0.2-0.4-0.3-0.6-0.3s-0.4,0.1-0.6,0.3l-3.4,3.4c-0.2,0.2-0.3,0.4-0.3,0.6c0,0.2,0.1,0.4,0.3,0.6
		l3.4,3.4c0.2,0.2,0.4,0.3,0.6,0.3c0.2,0,0.4-0.1,0.6-0.3c0.2-0.2,0.3-0.4,0.3-0.6v-1.7h5.1v5.1h-1.7c-0.2,0-0.4,0.1-0.6,0.3
		c-0.2,0.2-0.3,0.4-0.3,0.6s0.1,0.4,0.3,0.6l3.4,3.4c0.2,0.2,0.4,0.3,0.6,0.3c0.2,0,0.4-0.1,0.6-0.3l3.4-3.4
		c0.2-0.2,0.3-0.4,0.3-0.6s-0.1-0.4-0.3-0.6c-0.2-0.2-0.4-0.3-0.6-0.3h-1.7v-5.1h5.1v1.7c0,0.2,0.1,0.4,0.3,0.6
		c0.2,0.2,0.4,0.3,0.6,0.3c0.2,0,0.4-0.1,0.6-0.3l3.4-3.4c0.2-0.2,0.3-0.4,0.3-0.6c0-0.2-0.1-0.4-0.3-0.6l-3.4-3.4
		c-0.2-0.2-0.4-0.3-0.6-0.3c-0.2,0-0.4,0.1-0.6,0.3c-0.2,0.2-0.3,0.4-0.3,0.6v1.7h-5.1v-5.1h1.7c0.2,0,0.4-0.1,0.6-0.3
		c0.2-0.2,0.3-0.4,0.3-0.6c0-0.2-0.1-0.4-0.3-0.6l-3.4-3.4C-454.6,269.1-454.8,269-455,269L-455,269z"/>
</g>
<path class="st2" d="M-467,269h24v24h-24V269z"/>
</svg>
