<svg xmlns="http://www.w3.org/2000/svg" viewBox="-467 269 24 24"><path d="M-467 269h24v24h-24v-24z" fill="none"/><path d="M-452.2 272.4l-.8-.2h-.3c-.1.1-.2.1-.2.3l-4.6 16.7v.3c.1.1.1.2.3.2l.8.2h.3c.1-.1.2-.1.2-.3l4.6-16.7v-.3c-.1-.1-.2-.2-.3-.2zM-459.5 275.6c0-.1 0-.2-.1-.3l-.6-.6c-.1-.1-.2-.1-.3-.1s-.2 0-.3.1l-6 6c-.1.1-.1.2-.1.3s0 .2.1.3l6 6c.1.1.2.1.3.1s.2 0 .3-.1l.6-.6c.1-.1.1-.2.1-.3 0-.1 0-.2-.1-.3l-5.1-5.1 5.1-5.1s.1-.1.1-.3zM-443.1 280.9l-6-6c-.1-.1-.2-.1-.3-.1-.1 0-.2 0-.3.1l-.6.6c-.1.1-.1.2-.1.3 0 .1 0 .2.1.3l5.1 5.1-5.1 5.1c-.1.1-.1.2-.1.3 0 .1 0 .2.1.3l.6.6c.1.1.2.1.3.1.1 0 .2 0 .3-.1l6-6c.1-.1.1-.2.1-.3 0-.2 0-.3-.1-.3z"/></svg>