<svg xmlns="http://www.w3.org/2000/svg" viewBox="-445 252 44 58"><style>.st3{fill:#fff}</style><path d="M-414 253h-29c-.8 0-1.5.7-1.5 1.9V308c0 .3.7 1 1.5 1h40.1c.8 0 1.5-.7 1.5-1v-42c0-.7-.1-.9-.3-1.1l-11.6-11.6c-.3-.2-.5-.3-.7-.3z" fill="#e9e9e0"/><path fill="#d9d7ca" d="M-413.5 253.2V265h11.8z"/><path d="M-403 309h-40c-.8 0-1.5-.7-1.5-1.5V292h43v15.5c0 .8-.7 1.5-1.5 1.5z" fill="#dfb100"/><path class="st3" d="M-428.4 304.8c-.4.4-.8.6-1.3.8-.5.2-1 .3-1.5.3-.6 0-1.2-.1-1.7-.3-.5-.2-.9-.5-1.3-1-.4-.4-.7-1-.9-1.6-.2-.6-.3-1.4-.3-2.2 0-.8.1-1.6.3-2.2.2-.6.5-1.2.9-1.6.4-.4.8-.8 1.3-1 .5-.2 1.1-.3 1.7-.3.5 0 1.1.1 1.5.3.5.2.9.5 1.3.8l-1.1 1c-.2-.3-.5-.5-.8-.6-.3-.1-.6-.2-.9-.2-.3 0-.7.1-1 .2-.3.1-.6.3-.8.6-.2.3-.4.7-.6 1.2-.1.5-.2 1.1-.2 1.8s.1 1.3.2 1.8.3.9.5 1.2c.2.3.5.5.8.7s.6.2.9.2c.3 0 .6-.1.9-.2.3-.1.5-.3.8-.6l1.3.9zM-420.4 303.1c0 .4-.1.7-.2 1.1s-.4.6-.6.9c-.3.3-.6.5-1 .6s-.9.2-1.4.2h-.7c-.3 0-.5-.1-.7-.1-.2-.1-.5-.1-.7-.2l-.6-.3.3-1.2c.1.1.3.1.5.2s.4.1.6.2c.2.1.4.1.6.1.2 0 .4.1.6.1.6 0 1-.1 1.3-.4.3-.3.4-.6.4-1.2 0-.3-.1-.6-.3-.8-.2-.2-.5-.4-.8-.6-.3-.2-.7-.4-1-.5s-.7-.4-1-.6c-.3-.2-.6-.5-.8-.9s-.3-.7-.3-1.2c0-.4.1-.8.2-1.2.2-.3.4-.6.7-.9.3-.2.6-.4 1-.6.4-.1.8-.2 1.2-.2.4 0 .8 0 1.3.1.4.1.8.2 1 .4-.1.1-.1.2-.2.4-.1.1-.1.3-.2.4-.1.1-.1.2-.2.3 0 .1-.1.1-.1.1-.1 0-.1-.1-.2-.1s-.2-.1-.3-.1c-.1 0-.3-.1-.5-.1h-.8c-.2 0-.4.1-.5.2-.2.1-.3.2-.4.3-.1.1-.2.3-.3.4-.1.2-.1.3-.1.5 0 .4.1.7.3.9.2.2.5.4.8.6s.6.3 1 .5.7.4 1 .6.6.5.8.9c.2.2.3.7.3 1.2zM-416 305.9l-3.1-10.1h1.9l2.3 8.7 2.5-8.7h1.9l-3.3 10.1h-2.2z"/><path d="M-427.5 269v-4h-12v22h33v-18h-21zm-10-2h8v2h-8v-2zm0 4h8v2h-8v-2zm0 4h8v2h-8v-2zm0 4h8v2h-8v-2zm8 6h-8v-2h8v2zm21 0h-19v-2h19v2zm0-4h-19v-2h19v2zm0-4h-19v-2h19v2zm-19-4v-2h19v2h-19z" fill="#c8bdb8"/></svg>
