<svg xmlns="http://www.w3.org/2000/svg" viewBox="-445 252 44 58"><style>.st3{fill:#c8bdb8}.st4{fill:#fff}</style><path d="M-414 253h-29c-.8 0-1.5.7-1.5 1.9V308c0 .3.7 1 1.5 1h40.1c.8 0 1.5-.7 1.5-1v-42c0-.7-.1-.9-.3-1.1l-11.6-11.6c-.3-.2-.5-.3-.7-.3z" fill="#e9e9e0"/><path fill="#d9d7ca" d="M-413.5 253.2V265h11.8z"/><path d="M-403 309h-40c-.8 0-1.5-.7-1.5-1.5V292h43v15.5c0 .8-.7 1.5-1.5 1.5z" fill="#686868"/><path class="st3" d="M-432.5 266h-6c-.6 0-1-.4-1-1s.4-1 1-1h6c.6 0 1 .4 1 1s-.4 1-1 1zM-429.5 271h-9c-.6 0-1-.4-1-1s.4-1 1-1h9c.6 0 1 .4 1 1s-.4 1-1 1zM-425.5 271c-.3 0-.5-.1-.7-.3-.2-.2-.3-.4-.3-.7s.1-.5.3-.7c.4-.4 1-.4 1.4 0 .2.2.3.4.3.7s-.1.5-.3.7c-.2.2-.4.3-.7.3zM-413.5 271h-8c-.6 0-1-.4-1-1s.4-1 1-1h8c.6 0 1 .4 1 1s-.4 1-1 1zM-438.5 286c-.3 0-.5-.1-.7-.3-.2-.2-.3-.4-.3-.7s.1-.5.3-.7c.4-.4 1-.4 1.4 0 .2.2.3.4.3.7s-.1.5-.3.7c-.2.2-.4.3-.7.3zM-426.5 286h-8c-.6 0-1-.4-1-1s.4-1 1-1h8c.6 0 1 .4 1 1s-.4 1-1 1zM-407.5 271h-2c-.6 0-1-.4-1-1s.4-1 1-1h2c.6 0 1 .4 1 1s-.4 1-1 1zM-416.5 276h-22c-.6 0-1-.4-1-1s.4-1 1-1h22c.6 0 1 .4 1 1s-.4 1-1 1zM-407.5 276h-6c-.6 0-1-.4-1-1s.4-1 1-1h6c.6 0 1 .4 1 1s-.4 1-1 1zM-434.5 281h-4c-.6 0-1-.4-1-1s.4-1 1-1h4c.6 0 1 .4 1 1s-.4 1-1 1zM-420.5 281h-10c-.6 0-1-.4-1-1s.4-1 1-1h10c.6 0 1 .4 1 1s-.4 1-1 1zM-407.5 281h-9c-.6 0-1-.4-1-1s.4-1 1-1h9c.6 0 1 .4 1 1s-.4 1-1 1z"/><path class="st4" d="M-414.6 295.7v1.1h-3v9h-1.7v-9h-3v-1.1h7.7zM-414.1 305.8l3.5-10.1h1.6l3.5 10.1h-1.7l-.7-2.1h-3.8l-.7 2.1h-1.7zm2.8-3.2h3l-1.5-4.3-1.5 4.3zM-431.4 305.8l3.5-10.1h1.6l3.5 10.1h-1.7l-.7-2.1h-3.8l-.7 2.1h-1.7zm2.8-3.2h3l-1.5-4.3-1.5 4.3zM-432.4 300.5c0 .8-.1 1.5-.3 2.1-.2.6-.4 1.1-.7 1.5-.3.4-.6.7-.9.9-.3.2-.7.4-1 .5-.3.1-.6.2-.9.2H-440.6v-10.1h3c.8 0 1.6.1 2.2.4s1.2.6 1.6 1.1c.4.4.7 1 .9 1.5.4.7.5 1.3.5 1.9zm-4.8 4.1c1.1 0 1.9-.4 2.4-1.1s.7-1.7.7-3.1c0-.4 0-.8-.1-1.2-.1-.4-.3-.8-.6-1.1-.3-.3-.7-.6-1.2-.8-.5-.2-1.1-.3-1.9-.3h-1v7.6h1.7z"/></svg>
