<svg xmlns="http://www.w3.org/2000/svg" viewBox="-445 252 44 58"><style>.st2{fill:#55a1ce}.st3{fill:#fff}</style><path d="M-414 253h-29c-.8 0-1.5.7-1.5 1.9V308c0 .3.7 1 1.5 1h40.1c.8 0 1.5-.7 1.5-1v-42c0-.7-.1-.9-.3-1.1l-11.6-11.6c-.3-.2-.5-.3-.7-.3z" fill="#e9e9e0"/><path fill="#d9d7ca" d="M-413.5 253.2V265h11.8z"/><path class="st2" d="M-403 309h-40c-.8 0-1.5-.7-1.5-1.5V292h43v15.5c0 .8-.7 1.5-1.5 1.5z"/><path class="st3" d="M-433.2 295.8v10.1h-1.6v-4.5h-4.4v4.5h-1.7v-10.1h1.7v4.4h4.4v-4.4h1.6zM-423.8 295.8v1.1h-3v9h-1.7v-9h-3v-1.1h7.7zM-414.5 295.8h1.7v10.1h-1.7V299l-2.3 5.6h-1.4l-2.3-5.6v6.9h-1.7v-10.1h1.7l3 6.9 3-6.9zM-408.9 295.8v8.8h4.6v1.2h-6.3v-10.1h1.7z"/><g><path class="st2" d="M-427.8 269.3c-.4-.4-1-.4-1.4 0l-6 6c-.4.4-.4 1 0 1.4l6 6c.2.2.5.3.7.3s.5-.1.7-.3c.4-.4.4-1 0-1.4l-5.3-5.3 5.3-5.3c.4-.4.4-1 0-1.4zM-409.8 275.3l-6-6c-.4-.4-1-.4-1.4 0s-.4 1 0 1.4l5.3 5.3-5.3 5.3c-.4.4-.4 1 0 1.4.2.2.5.3.7.3s.5-.1.7-.3l6-6c.4-.4.4-1 0-1.4z"/></g></svg>
