<svg xmlns="http://www.w3.org/2000/svg" viewBox="-445 252 44 58"><style>.st2{fill:#ef7100}.st3{fill:#fff}</style><path d="M-414 253h-29c-.8 0-1.5.7-1.5 1.9V308c0 .3.7 1 1.5 1h40.1c.8 0 1.5-.7 1.5-1v-42c0-.7-.1-.9-.3-1.1l-11.6-11.6c-.3-.2-.5-.3-.7-.3z" fill="#e9e9e0"/><path fill="#d9d7ca" d="M-413.5 253.2V265h11.8z"/><path class="st2" d="M-403 309h-40c-.8 0-1.5-.7-1.5-1.5V292h43v15.5c0 .8-.7 1.5-1.5 1.5z"/><path class="st3" d="M-434 295.6v7.8c0 .5-.1.9-.3 1.2-.2.3-.4.6-.7.8-.3.2-.6.3-1 .4-.4.1-.8.1-1.2.1-.2 0-.4 0-.7-.1-.3 0-.5-.1-.8-.2-.3-.1-.6-.2-.8-.3s-.5-.2-.7-.4l.7-1.1c.1.1.2.1.4.2s.4.1.6.2c.2.1.4.1.6.2s.4.1.6.1c.5 0 .9-.1 1.2-.3.3-.2.4-.5.5-.9v-7.7h1.6zM-425.8 303.1c0 .4-.1.7-.2 1.1s-.4.6-.6.9c-.3.3-.6.5-1 .6s-.9.2-1.4.2h-.7c-.3 0-.5-.1-.7-.1-.2-.1-.5-.1-.7-.2l-.6-.3.3-1.2c.1.1.3.1.5.2s.4.1.6.2.4.1.6.1c.2 0 .4.1.6.1.6 0 1-.1 1.3-.4.3-.3.4-.6.4-1.2 0-.3-.1-.6-.3-.8-.2-.2-.5-.4-.8-.6-.3-.2-.7-.4-1-.5s-.7-.4-1-.6-.6-.5-.8-.9c-.2-.3-.3-.7-.3-1.2 0-.4.1-.8.2-1.2.2-.3.4-.6.7-.9.3-.2.6-.4 1-.6.4-.1.8-.2 1.2-.2.4 0 .8 0 1.3.1.4.1.8.2 1 .4-.1.1-.1.2-.2.4s-.1.3-.2.4c-.1.1-.1.2-.2.3 0 .1-.1.1-.1.1-.1 0-.1-.1-.2-.1s-.2-.1-.3-.1c-.1 0-.3-.1-.5-.1h-.8c-.2 0-.4.1-.5.2-.2.1-.3.2-.4.3-.1.1-.2.3-.3.4s-.1.3-.1.5c0 .4.1.7.3.9.2.2.5.4.8.6.3.2.6.3 1 .5s.7.4 1 .6c.3.2.6.5.8.9s.3.7.3 1.2zM-415.9 300.8c0 .8-.1 1.6-.3 2.2-.2.6-.5 1.2-.9 1.6-.4.4-.8.8-1.3 1-.5.2-1.1.3-1.7.3-.6 0-1.2-.1-1.7-.3-.5-.2-.9-.5-1.3-1-.4-.4-.7-1-.9-1.6s-.3-1.4-.3-2.2c0-.8.1-1.6.3-2.2.2-.6.5-1.2.9-1.6.4-.4.8-.8 1.3-1 .5-.2 1.1-.3 1.7-.3.6 0 1.2.1 1.7.3.5.2.9.5 1.3 1 .4.4.7 1 .9 1.6.2.6.3 1.3.3 2.2zm-4.3 3.8c.3 0 .7-.1 1-.2.3-.1.6-.3.8-.6.2-.3.4-.7.6-1.2.1-.5.2-1.1.2-1.8s-.1-1.3-.2-1.7c-.1-.5-.3-.9-.5-1.2s-.5-.5-.8-.7-.6-.2-.9-.2c-.3 0-.7.1-1 .2-.3.1-.6.3-.8.6s-.4.7-.6 1.2c-.1.5-.2 1.1-.2 1.8s.1 1.3.2 1.8.3.9.5 1.2.5.5.8.7c.3 0 .6.1.9.1zM-406.3 295.8v10.1h-1.7l-4-6.9v6.9h-1.7v-10.1h1.7l4 6.9v-6.9h1.7z"/><g><path class="st2" d="M-431.5 272v-4c0-.6.4-1 1-1s1-.4 1-1-.4-1-1-1c-1.7 0-3 1.3-3 3v4c0 1.1-.9 2-2 2-.6 0-1 .4-1 1s.4 1 1 1c1.1 0 2 .9 2 2v4c0 1.7 1.3 3 3 3 .6 0 1-.4 1-1s-.4-1-1-1-1-.4-1-1v-4c0-1.2-.5-2.3-1.4-3 .9-.7 1.4-1.8 1.4-3z"/><circle class="st2" cx="-423.5" cy="271.5" r="1.5"/><path class="st2" d="M-411.5 274c-1.1 0-2-.9-2-2v-4c0-1.7-1.3-3-3-3-.6 0-1 .4-1 1s.4 1 1 1 1 .4 1 1v4c0 1.2.5 2.3 1.4 3-.8.7-1.4 1.8-1.4 3v4c0 .6-.4 1-1 1s-1 .4-1 1 .4 1 1 1c1.7 0 3-1.3 3-3v-4c0-1.1.9-2 2-2 .6 0 1-.4 1-1s-.4-1-1-1zM-423.5 277c-.6 0-1 .4-1 1v3c0 .6.4 1 1 1s1-.4 1-1v-3c0-.6-.4-1-1-1z"/></g></svg>
