<svg xmlns="http://www.w3.org/2000/svg" viewBox="-445 252 44 58"><style>.st2{fill:#e0051e}.st3{fill:#fff}</style><path d="M-414 253h-29c-.8 0-1.5.7-1.5 1.9V308c0 .3.7 1 1.5 1h40.1c.8 0 1.5-.7 1.5-1v-42c0-.7-.1-.9-.3-1.1l-11.6-11.6c-.3-.2-.5-.3-.7-.3z" fill="#e9e9e0"/><path fill="#d9d7ca" d="M-413.5 253.2V265h11.8z"/><path class="st2" d="M-431.5 286.3c-.3 0-.7-.1-1-.3-1-.8-1.2-1.6-1.1-2.2.2-1.6 2.2-3.3 6-5.1 1.5-3.3 2.9-7.4 3.8-10.8-1-2.2-2-5-1.3-6.6.2-.6.6-1 1.1-1.2.2-.1.8-.2 1-.2.5 0 .9.6 1.3 1 .3.4 1 1.2-.4 6.8 1.3 2.8 3.3 5.6 5.1 7.6 1.3-.2 2.4-.4 3.4-.4 1.6 0 2.5.4 2.9 1.1.3.6.2 1.3-.4 2.2-.6.8-1.3 1.2-2.2 1.2-1.2 0-2.6-.8-4.2-2.3-2.8.6-6.1 1.7-8.8 2.8-.8 1.8-1.6 3.2-2.4 4.3-1 1.5-1.9 2.1-2.8 2.1zm2.7-5.1c-2.1 1.2-3 2.2-3.1 2.7 0 .1 0 .3.4.7.2 0 1.1-.4 2.7-3.4zm13.6-4.4c.8.6 1 .9 1.5.9.2 0 .9 0 1.2-.4.1-.2.2-.3.2-.4-.1-.1-.3-.2-1.2-.2-.4-.1-1 0-1.7.1zm-7.5-6.6c-.7 2.5-1.7 5.1-2.7 7.6 2.1-.8 4.4-1.5 6.5-2-1.3-1.7-2.6-3.6-3.8-5.6zm-.6-8.5c-.1 0-1.3 1.8.1 3.2 1-2.1 0-3.2-.1-3.2zM-403 309h-40c-.8 0-1.5-.7-1.5-1.5V292h43v15.5c0 .8-.7 1.5-1.5 1.5z"/><path class="st3" d="M-433.6 305.9h-1.6v-10.1h2.9c.4 0 .9.1 1.3.2s.8.3 1.1.6c.3.3.6.6.8 1 .2.4.3.8.3 1.3s-.1 1-.3 1.4-.4.8-.7 1c-.3.3-.7.5-1.1.7-.4.2-.9.2-1.4.2h-1.2l-.1 3.7zm0-8.9v4h1.5c.2 0 .4 0 .6-.1.2-.1.4-.2.5-.3s.3-.4.4-.6c.1-.3.1-.6.1-1 0-.2 0-.4-.1-.6 0-.2-.1-.4-.3-.6-.1-.2-.3-.4-.6-.5-.3-.1-.6-.2-1-.2l-1.1-.1zM-418.8 300.5c0 .8-.1 1.5-.3 2.1-.2.6-.4 1.1-.7 1.5-.3.4-.6.7-.9.9-.3.2-.7.4-1 .5-.3.1-.6.2-.9.2H-427v-10.1h3c.8 0 1.6.1 2.2.4.6.3 1.2.6 1.6 1.1.4.4.7 1 .9 1.5.4.7.5 1.3.5 1.9zm-4.8 4.2c1.1 0 1.9-.4 2.4-1.1s.7-1.7.7-3.1c0-.4 0-.8-.1-1.2-.1-.4-.3-.8-.6-1.1-.3-.3-.7-.6-1.2-.8s-1.1-.3-1.9-.3h-1v7.6h1.7zM-414.7 297v3.2h4.2v1.1h-4.2v4.5h-1.7v-10.1h6.3v1.2h-4.6z"/></svg>
