<svg xmlns="http://www.w3.org/2000/svg" viewBox="-457 252 44 58"><style>.st3{fill:#c8bdb8}.st4{fill:#fff}</style><path d="M-426 253h-29c-.8 0-1.5.7-1.5 1.9V308c0 .3.7 1 1.5 1h40.1c.8 0 1.5-.7 1.5-1v-42c0-.7-.1-.9-.3-1.1l-11.6-11.6c-.4-.2-.5-.3-.7-.3z" fill="#e9e9e0"/><path fill="#d9d7ca" d="M-425.5 253.2V265h11.7z"/><path d="M-415 309h-40c-.8 0-1.5-.7-1.5-1.5V292h43v15.5c0 .8-.8 1.5-1.5 1.5z" fill="#556080"/><path class="st3" d="M-434.5 277v-2h2v-2h-2v-2h2v-2h-2v-2h2v-2h-2v-2h2v-2h-2v-2h-2v2h-2v2h2v2h-2v2h2v2h-2v2h2v2h-2v2h2v2h-4v5c0 2.8 2.2 5 5 5s5-2.2 5-5v-5h-4zm2 5c0 1.7-1.3 3-3 3s-3-1.3-3-3v-3h6v3z"/><path class="st3" d="M-436.5 283h2c.6 0 1-.4 1-1s-.4-1-1-1h-2c-.6 0-1 .4-1 1s.3 1 1 1z"/><g><path class="st4" d="M-439.4 305.8l3.5-10.1h1.6l3.5 10.1h-1.7l-.7-2.1h-3.8l-.7 2.1h-1.7zm2.8-3.2h3l-1.5-4.3-1.5 4.3zM-442.1 305.8l-1.9-3.7h-.1H-445.5v3.6h-1.6v-10.1h2.9c.4 0 .9.1 1.3.2s.8.3 1.1.6c.3.3.6.6.8 1 .2.4.3.8.3 1.3 0 .7-.2 1.3-.5 1.9-.3.5-.8.9-1.4 1.1l2.3 4h-1.8zm-3.4-4.9h1.5c.2 0 .4 0 .6-.1.2-.1.4-.2.5-.3s.3-.4.4-.6c.1-.3.1-.6.1-1 0-.2 0-.4-.1-.6 0-.2-.1-.4-.3-.6-.1-.2-.3-.4-.6-.5-.3-.1-.6-.2-1-.2h-1.2v3.9zM-424.6 305.8l-1.9-3.7h-.1H-428v3.6h-1.6v-10.1h2.9c.4 0 .9.1 1.3.2s.8.3 1.1.6c.3.3.6.6.8 1 .2.4.3.8.3 1.3 0 .7-.2 1.3-.5 1.9-.3.5-.8.9-1.4 1.1l2.3 4h-1.8zm-3.4-4.9h1.5c.2 0 .4 0 .6-.1.2-.1.4-.2.5-.3s.3-.4.4-.6c.1-.3.1-.6.1-1 0-.2 0-.4-.1-.6 0-.2-.1-.4-.3-.6-.1-.2-.3-.4-.6-.5-.3-.1-.6-.2-1-.2h-1.2v3.9z"/></g></svg>
