<svg xmlns="http://www.w3.org/2000/svg" viewBox="-445 252 44 58"><style>.st3{fill:#fff}</style><path d="M-414 253h-29c-.8 0-1.5.7-1.5 1.9V308c0 .3.7 1 1.5 1h40.1c.8 0 1.5-.7 1.5-1v-42c0-.7-.1-.9-.3-1.1l-11.6-11.6c-.3-.2-.5-.3-.7-.3z" fill="#e9e9e0"/><path fill="#d9d7ca" d="M-413.5 253.2V265h11.8z"/><path d="M-403 309h-40c-.8 0-1.5-.7-1.5-1.5V292h43v15.5c0 .8-.7 1.5-1.5 1.5z" fill="#2db55d"/><path class="st3" d="M-429.9 300.9l2.6 4.9h-1.9l-1.6-3.8h-.1l-1.7 3.8h-1.9l2.6-4.9-2.7-5.2h1.9l1.8 4.1h.1l1.9-4.1h1.9l-2.9 5.2zM-423.2 295.7v8.8h4.6v1.2h-6.3v-10.1h1.7zM-411.2 303c0 .4-.1.7-.2 1.1s-.4.6-.6.9c-.3.3-.6.5-1 .6s-.9.2-1.4.2h-.7c-.3 0-.5-.1-.7-.1-.2-.1-.5-.1-.7-.2l-.6-.3.3-1.2c.1.1.3.1.5.2s.4.1.6.2c.2.1.4.1.6.1.2 0 .4.1.6.1.6 0 1-.1 1.3-.4.3-.3.4-.6.4-1.2 0-.3-.1-.6-.3-.8-.2-.2-.5-.4-.8-.6-.3-.2-.7-.4-1-.5-.4-.2-.7-.4-1-.6-.3-.2-.6-.5-.8-.9-.2-.3-.3-.7-.3-1.2 0-.4.1-.8.2-1.2.2-.3.4-.6.7-.9.3-.2.6-.4 1-.6.4-.1.8-.2 1.2-.2.4 0 .8 0 1.3.1s.8.2 1 .4c-.1.1-.1.2-.2.4-.1.1-.1.3-.2.4-.1.1-.1.2-.2.3 0 .1-.1.1-.1.1-.1 0-.1-.1-.2-.1s-.2-.1-.3-.1c-.1 0-.3-.1-.5-.1h-.8c-.2 0-.4.1-.5.2-.2.1-.3.2-.4.3-.1.1-.2.3-.3.4-.1.2-.1.3-.1.5 0 .4.1.7.3.9.2.2.5.4.8.6s.6.3 1 .5.7.4 1 .6.6.5.8.9c.2.3.3.7.3 1.2z"/><path d="M-427.5 269v-4h-12v22h33v-18h-21zm-10-2h8v2h-8v-2zm0 4h8v2h-8v-2zm0 4h8v2h-8v-2zm0 4h8v2h-8v-2zm8 6h-8v-2h8v2zm21 0h-19v-2h19v2zm0-4h-19v-2h19v2zm0-4h-19v-2h19v2zm-19-4v-2h19v2h-19z" fill="#c8bdb8"/></svg>
