<svg xmlns="http://www.w3.org/2000/svg" viewBox="-445 252 44 58"><style>.st2{fill:#bacb58}.st3{fill:#fff}</style><path d="M-414 253h-29c-.8 0-1.5.7-1.5 1.9V308c0 .3.7 1 1.5 1h40.1c.8 0 1.5-.7 1.5-1v-42c0-.7-.1-.9-.3-1.1l-11.6-11.6c-.3-.2-.5-.3-.7-.3z" fill="#e9e9e0"/><path fill="#d9d7ca" d="M-413.5 253.2V265h11.8z"/><path class="st2" d="M-403 309h-40c-.8 0-1.5-.7-1.5-1.5V292h43v15.5c0 .8-.7 1.5-1.5 1.5z"/><path class="st3" d="M-431.6 300.9l2.6 4.9h-1.9l-1.6-3.8h-.1l-1.7 3.8h-1.9l2.6-4.9-2.7-5.2h1.9l1.8 4.1h.1l1.9-4.1h1.9l-2.9 5.2zM-419 295.7h1.7v10.1h-1.7v-6.9l-2.3 5.6h-1.4l-2.3-5.6v6.9h-1.7v-10.1h1.7l3 6.9 3-6.9zM-413.1 295.7v8.8h4.6v1.2h-6.3v-10.1h1.7z"/><path class="st2" d="M-435.5 277c-.3 0-.5-.1-.7-.3-.4-.4-.4-1 0-1.4l6-6c.4-.4 1-.4 1.4 0s.4 1 0 1.4l-6 6c-.2.2-.4.3-.7.3z"/><path class="st2" d="M-429.5 283c-.3 0-.5-.1-.7-.3l-6-6c-.4-.4-.4-1 0-1.4s1-.4 1.4 0l6 6c.4.4.4 1 0 1.4-.2.2-.4.3-.7.3zM-417.5 283c-.3 0-.5-.1-.7-.3-.4-.4-.4-1 0-1.4l6-6c.4-.4 1-.4 1.4 0s.4 1 0 1.4l-6 6c-.2.2-.4.3-.7.3z"/><path class="st2" d="M-411.5 277c-.3 0-.5-.1-.7-.3l-6-6c-.4-.4-.4-1 0-1.4s1-.4 1.4 0l6 6c.4.4.4 1 0 1.4-.2.2-.4.3-.7.3zM-426.5 285c-.1 0-.2 0-.3-.1-.5-.2-.8-.8-.6-1.3l6-17c.2-.5.8-.8 1.3-.6.5.2.8.8.6 1.3l-6 17c-.2.4-.6.7-1 .7z"/></svg>
